<?xml version="1.0" encoding="utf-8"?>
<!-- Generator: Adobe Illustrator 24.1.2, SVG Export Plug-In . SVG Version: 6.00 Build 0)  -->
<svg version="1.1" id="Layer_1" xmlns="http://www.w3.org/2000/svg" xmlns:xlink="http://www.w3.org/1999/xlink" x="0px" y="0px"
	 viewBox="0 0 153 66" style="enable-background:new 0 0 153 66;" xml:space="preserve">
<style type="text/css">
	.st0{fill:#E9CA82;}
</style>
<g>
	<g>
		<g>
			<g>
				<path class="st0" d="M56.76,46.03c0,0-2.25,1.1-2.84-0.46c-0.18-0.46-0.14-0.95,0.33-1.24c0.46-0.29,0.82-0.08,0.86,0.17
					c0.07,0.38-1.1,0.31-0.6,0.99c0.26,0.35,1.41,0.41,1.16-1.01c-0.31-1.7-3.12-0.81-2.27,1.26c0.85,2.06,3.1,0.8,3.1,0.8
					L56.76,46.03z"/>
			</g>
			<g>
				<path class="st0" d="M55.53,47.46c0,0,0.04,0.92-0.91,1.48c-0.51,0.3-3.07,1.1-3.07,3.57c0,2.47-1.25,3.45-2.12,3.85
					c-3.21,1.49-4.09,4.28-4.09,4.28c0.69-1.15,1.8-1.39,2.97-1.2c1.18,0.18,1.87-0.92,1.87-0.92s0.7,0.24,1.16-0.07
					c0.46-0.32,0.43-0.9,0.43-0.9s0.25-0.07,0.45,0.02c1.36-0.09,1.43-0.7,1.47-1.15c0.05-0.45-0.45-1.18-0.86-0.86
					c-0.41,0.32,0.14,0.92,0.14,0.92c-0.31,0.02-0.91-0.64-0.51-1.17c0.4-0.52,0.96-0.14,0.96-0.14c0.16-0.59,0.82-0.31,0.82-0.31
					s-0.81,0.45-0.23,1.17c0.57,0.73,1.37-0.28,1.37-0.28s0.9,0.43,1.39-0.08c0.74-0.79-0.14-1.39-0.14-1.39s1.51-0.89,0.37-2.13
					c-1.14-1.23-2.13,0.27-2.13,0.27c0.7-0.2,1.25,0.89,0.88,1.49c-0.37,0.61-2.03,0.72-2.32-0.63c-0.5-2.31,1.13-3.19,1.73-3.97
					c0.48-0.64,0.5-1.88,0.5-1.88L55.53,47.46z"/>
			</g>
			<g>
				<path class="st0" d="M65.77,31.85c0,0,0.28-1.72-1.53-1.57C62.44,30.42,63,32.23,63,32.23c0.42-0.65,1.65-0.28,1.77,0.56
					c0.17,1.09-0.94,2.35-2.19,1.35c-0.71-0.57-1.09-1.84-1.08-2.87c0.02-3.02-2.28-2.93-2.28-2.93s1.49,0.56,1.63,2.41
					c0.13,1.7-0.74,3.19,0.68,4.62c1.88,1.88,1.33,3.65,0.92,4.65c-1.51,3.69,0.19,6.23,0.19,6.23c-0.47-1.41,0.45-2.25,1.32-3.18
					c0.91-0.98,0.24-2.49,0.24-2.49s0.98-0.02,1.16-0.77c0.16-0.61-0.32-1.02-0.32-1.02s0.15,0.04,0.5-0.52
					c0.44-0.7,0.16-1.61-0.18-1.96c-0.34-0.35-1.05-0.34-1.08,0.25C64.27,37.14,65,37.05,65,37.05c-0.31,0.36-1.14,0.4-1.29-0.31
					c-0.16-0.72,0.58-1,0.58-1c-0.37-0.56,0.27-1,0.27-1s-0.19,1.02,0.8,1.01c0.99,0,0.73-1.4,0.73-1.4S67,33.89,67,33.16
					C67.02,32.35,66.44,31.85,65.77,31.85z"/>
			</g>
			<g>
				<path class="st0" d="M62.02,40.06c0,0-0.5,1.74-0.54,2.52c-0.04,0.75-0.54,1.19-1.72,2.04c-1.25,0.91-2.35,2.05-1.73,3.76
					c0.62,1.73,2.35,1.98,3.39,0.68c0.92-1.14,0.07-2.12-1.24-1.74c-0.13,0.04-0.22-0.03-0.16-0.11c0,0,1.33-1.87,2.65-0.1
					c1.32,1.76-1.51,6.12-4.89,3.61c-3.37-2.51,0.21-5.76,0.21-5.76s-2.16,0.25-2.24-1.63c-0.08-1.86,1.86-3.11,2.79-1.84
					c0.97,1.32-0.54,1.95-1.4,1.59c0,0,1.83-0.52,0.8-1.32c-0.97-0.76-1.99,1.22-1,1.85c0.98,0.63,3.68-0.23,4.95-3.18L62.02,40.06z
					"/>
			</g>
			<g>
				<path class="st0" d="M49.62,15.33c0,0-0.47-0.76-0.98-0.92c-0.51-0.17-0.75-0.16-0.75-0.16s0.46,0.53,0.65,0.64
					C48.75,15,49.17,15.31,49.62,15.33"/>
			</g>
			<g>
				<g>
					<path class="st0" d="M38.91,9.65c0,0,1.34-1.12,2.33-0.86c0,0-1.25-0.74-2.83,0.09C38.41,8.88,38.59,9.35,38.91,9.65"/>
					<path class="st0" d="M37.14,7.53c0,0,0.02,1,0.04,1.13c0.02,0.13,0.33-0.47,0.35-0.62c0.02-0.15-0.02,0.56-0.02,0.56
						s0.25,1.3,1.87,2.12c1.95,0.99,3.26,0.55,5.22,1.61c2.86,1.55,2.81,2.76,5.03,4.12c0.12,0.02,0.24,0.08-0.26-0.28
						c-0.5-0.35-3.23-3.98-5.96-4.59c-2.74-0.59-3.46-0.76-4.53-1.73c-1.06-0.98-1.02-2.93-1.72-2.37"/>
					<path class="st0" d="M37,10.56c-0.01-0.05,0.13,0.05,0.57-0.06c0.16-0.05,0.26-0.07,0.26-0.07s0.6,0.66,0.68,0.69l0.16-0.47
						c0,0,0.13,0.75,0.53,0.72c0.39-0.02,0.46-0.29,0.46-0.29s0.73,0.31,0.96,0.34c0,0-0.35,0.35-0.68,0.35c0,0-0.26,0.97-1.1,0.19
						C38.83,11.95,37.24,11.9,37,10.56"/>
					<path class="st0" d="M37.13,11.35c0,0,0.34,0.45,0.75,0.63c0.42,0.18,0.84,0.21,0.84,0.21s0.38,0.33,0.69,0.34
						c0.31,0,0.51-0.12,0.65-0.5l0.48-0.05c0,0-0.02,0.74,1,1.43c1.02,0.69,2.35,1.4,1.58,4.76c0,0,0.59-2.42-1.06-3.59
						C40.4,13.38,37.83,14.56,37.13,11.35"/>
					<path class="st0" d="M46.31,14.68c0,0-1.67-0.24-2.33-0.93c-0.67-0.69-0.84-1.64-0.84-1.64s1.17,0.14,1.83,0.8
						C45.57,13.5,46.31,14.68,46.31,14.68"/>
					<path class="st0" d="M43.01,11.33c0,0-0.1-0.64-0.25-0.75c-0.15-0.1,0.68,0.53,0.93,0.64c0.23,0.11,0.51,0.34,0.51,0.34
						S43.17,11.3,43.01,11.33"/>
					<path class="st0" d="M58.55,10.03c-0.45-0.12-0.77-0.17-2.33-1.8c-0.28-0.28-1.05-1.11-2.52-0.6c-1.46,0.52-2.69,0.3-3.06,0.16
						c0,0,0.19,0.34,0.45,0.61c0.26,0.27,0.64,0.61,0.43,0.8c-0.2,0.2-1.06-0.05-1.53-0.15c-0.13-0.03-0.52-0.13-0.6,0.04
						c-0.07,0.18,0.53,0.68,0.48,0.79c-0.04,0.1-0.62,0.18-0.53,0.65c0.09,0.47,0.33,0.75,0.3,0.84c-0.05,0.09-0.74,0-1.03,0.22
						c-0.31,0.24-0.3,1.15-0.39,1.19c-0.09,0.03-0.6-0.48-0.97-0.2c-0.37,0.28-0.56,0.37-0.56,0.37L47.8,14c0,0,0.53-0.27,1.06,0.06
						c0.53,0.31,2.58,2.37,3.16,2.64c0.58,0.27,0.63,0.28,0.63,0.28s-0.99-0.75-1.38-1.47c-0.37-0.72-1.02-1.45-1.74-1.76
						c-0.1-0.04-0.08-0.03-0.04-0.12c0.04-0.09,0.69-0.09,1.62,0.2c0.93,0.3,3.3,0.97,4.63,2.07c0,0-1.09-1.08-2.13-2.03
						c-0.93-0.84-2.13-0.96-2.33-0.93c-0.21,0.02-0.36,0.06-0.38-0.1c-0.02-0.16,1.34-0.81,2.56-0.28c1.23,0.52,3.51,2.24,5.74,1.99
						c0,0-3.21-0.83-4.38-2.17c-1.46-1.68-2.39-1.68-2.89-1.68c-0.13,0-0.27-0.21,0.12-0.34c0.38-0.11,1.57-0.27,3.05,0.65
						c1.57,0.97,2.77,1.03,3.48,0.89c0,0-1.75-0.61-2.8-1.53c-0.39-0.35-0.77-1.17-2.04-1.31C53.2,9,53,9.12,52.83,9.01
						c-0.18-0.11,0.7-0.3,1.4-0.36c0.71-0.06,1.13,0.17,1.95,0.77c0.81,0.6,1.6,0.77,2,0.7"/>
					<path class="st0" d="M51.12,8.93c0,0-1.03-0.19-1.47-0.43c-0.44-0.24-0.52-0.25-0.52-0.25s0.32-0.33,0.37-0.39
						c0.04-0.07-0.02-0.12-0.04-0.16c-0.02-0.03-1.03-0.58-1.26-0.82c-0.25-0.24-0.5-0.42-0.67-0.53c-0.17-0.1-0.44-0.33-0.44-0.33
						s0.48-0.41,1.23-0.47c0.75-0.05,0.78,0.01,0.78,0.01s-0.97,0.47-0.66,0.7c0.32,0.23,1.67,0.75,2.85,0.41
						c1.18-0.34,2.52-1.09,2.49-1.91c-0.02-0.64-0.82,0.12-0.69-0.7c0.07-0.37,0.35-0.85,1.24-0.39c0.89,0.46,0.12,2.34-1,2.95
						c-0.93,0.5-1.61,0.64-2.82,0.78C50.28,7.42,50.05,7.63,50.29,8c0.23,0.36,0.71,0.87,0.84,0.94"/>
					<path class="st0" d="M46.18,6.96c0,0-0.29-0.84-0.52-1.16c0,0,0.84,0.09,1.87,0.99c1.03,0.89,1.39,0.89,1.35,1.01
						c-0.03,0.11-0.36,0.28-0.26,0.48c0.11,0.2,0.66,0.4,0.66,0.4s-0.79,0.27-0.01,1.08c0,0-0.78,0.33-0.11,1.32
						c0,0-1.22-0.16-1.19,1.24c0,0-0.73-0.63-1.43,0.35c0,0-0.15-0.49-0.89-0.33c0,0-1.08-0.68-1.22-0.76c0,0,0.45,0.2,0.73-0.43
						c0,0,0.97,0.61,1.76,0.12c0.79-0.5,1.56-1.67,0.9-2.44c-0.15-0.17-0.62-0.49-0.62-0.49s0.68-0.85-0.94-1.35"/>
					<path class="st0" d="M35.41,5.47c-0.4,0.69,0.8,1.18,0.8,1.18c0.11,0.36,0.65,0.82,0.97,0.62c0.85-0.57-0.26-1.4-0.26-1.4
						c1.31,0.31,0.68,1.4,0.68,1.4c0.77,0.75,2.16,0.44,2.16,0.44c0.72,1.08,1.81,0.6,1.81,0.6C41.7,9,42.47,9.13,42.47,9.13
						c-0.33-0.34-0.4-0.84-0.26-1c0.14-0.16,0.55-0.1,0.63,0.13c0.1,0.24-0.21,0.57-0.21,0.57s0.07,0,0.15,0.28
						c0.09,0.28-0.35,0.33-0.51,0.22c-0.15-0.11-0.7-0.35-1.18-0.36c-1.17-0.04-1.37,1.25-1.37,1.25c0.23,0.25,1.33,0.54,1.33,0.54
						s0-0.38,0.45-0.59c0.44-0.21,0.96-0.03,1.66,0.44c0.69,0.47,1.06,0.66,1.42,0.64c0.35-0.02,0.37-0.55,0.37-0.55
						s0.29,0.25,1.06,0.34c0.77,0.08,1.56-0.91,1.57-1.5c0.01-0.58-0.77-1.04-0.77-1.04c0.16-0.65-0.18-1.01-0.65-1.17
						c-0.47-0.17-1.39-0.05-1.39-0.05c0.25-0.21,1.02-0.41,1.02-0.41c-0.87-2.63-3.01-2.17-3.01-2.17c0.27,0.28,0.41,0.83,0.41,0.83
						c-0.14-0.26-0.83-0.95-1.4-1.14c-0.58-0.21-2.03-0.26-1.87,0.79c0.17,1.06,1.17,0.86,1.17,0.86C41,6.38,41.1,6.61,41.33,6.71
						c0.36,0.16,0.65-0.19,0.58-0.47c-0.07-0.28-0.39-0.35-0.39-0.35c0.19-0.07,0.58-0.42,0.58-0.42c-0.07,0.21-0.2,0.33-0.2,0.33
						c0.5,0.63,1.56,0.71,1.56,0.71s-0.19,0.1-0.37,0.09c-0.63-0.01-0.98-0.37-0.98-0.37c0.06,0.4-0.09,0.85-0.28,0.9
						c-0.21,0.06-0.6-0.01-0.88-0.42c-0.27-0.41-0.79-0.6-0.79-0.6c0.21,0.35,0.1,0.82,0.1,0.82c-0.57-1.72-1.77-1.71-1.77-1.71
						s0.15,0.05,0.28,0.29c0.13,0.25,0.01,0.4,0.01,0.4s-0.41-0.45-0.71-0.66c-1.02-0.71-1.91-0.61-2.11-0.31
						c-0.76,1.11,1.2,1.48,1.2,1.48s-0.05,0.22-0.32,0.25c-0.27,0.03-0.3-0.34-0.3-0.34C35.99,6.2,35.79,6,35.65,5.74
						c-0.25-0.47,0.38-1.11,0.38-1.11s-0.47-0.3-0.76,0.05C35,5,35.41,5.47,35.41,5.47 M46.19,10.79c0,0,0.72-0.14,1-0.7
						c0.06-0.11,0.07-0.4,0.03-0.5c-0.14-0.31-0.58-0.54-0.59-0.53l0.11-0.16c0.03,0.01,0.48,0.3,0.64,0.67
						c0.06,0.13,0,0.43-0.08,0.58c-0.31,0.61-1.05,0.76-1.09,0.76L46.19,10.79z"/>
				</g>
			</g>
			<g>
				<path class="st0" d="M60.62,21.4c0,0-0.59,0.77-0.79,1.17c-0.09,0.18-0.2,0.69-0.2,0.69s-0.62,0.34-0.83,0.87
					c-0.23,0.59-0.11,0.99,0.02,1.32c-0.36,0.26-0.58,0.5-0.56,0.9c-0.49-0.16-1.62-0.73-2.14-1.02c-0.52-0.29-1.09-0.42-1.28-0.38
					c-0.19,0.04-0.1,0.31-0.03,0.56c0.06,0.25,0.34,1.15-0.26,1.53c-0.61,0.39-1.38,0.1-1.65-0.17c-0.27-0.28-0.6-0.27-0.7-0.45
					c-0.09-0.18,0-0.18,0.1-0.13c0.09,0.04,0.22,0.02,0.3-0.07c0.08-0.09,0.51-0.04,0.63,0.01c0.12,0.05,0.59,0.01,0.41-0.67
					c-0.19-0.68-0.12-1.56-0.6-1.57c-0.49-0.02-0.94,0.02-1.19-0.29c-0.24-0.31-0.44-0.63-0.69-0.53c-0.27,0.09-0.29,0.24-0.31,0.32
					c-0.13-0.32,0.04-0.76,0.37-0.93c0.32-0.18,0.65-0.11,0.87,0.17c0.22,0.29,0.74,0.57,0.99,0.62c-0.2-0.41-0.27-0.76-0.37-0.93
					c-0.1-0.16-0.13-0.3-0.13-0.3c-0.09-0.1-0.53-0.3-0.67-0.29c0.33-0.14,0.88-0.22,1.16-0.03c0.2-0.05,0.56,0.1,0.64,0.35
					c0.07,0.26,0.06,0.51,0.12,0.87c0.06,0.36,0.06,0.36,0.06,0.36c-0.03-0.68-0.03-1,0.02-1.19c0.06-0.19,0.07-0.5-0.02-0.55
					c-0.09-0.05-0.02-0.22-0.02-0.22c-0.18-0.09-0.14-0.28-0.55-0.3c0.37-0.11,0.74-0.12,0.93,0.02c0.14-0.06,0.38,0,0.48,0.13
					c0.09,0.12,0.3,0.36,0.23,0.68c-0.07,0.32-0.16,0.73-0.15,0.85c0.25-0.51,0.46-0.96,0.45-1.22c-0.02-0.25,0.11-0.46,0.18-0.47
					c0.02-0.2-0.05-0.42-0.12-0.44c0.3,0.08,0.45,0.29,0.49,0.4c0.14,0.08,0.38,0.3,0.34,0.77c-0.05,0.46-0.36,0.98-0.92,1.28
					c0.35,0.25,1.12,0.56,1.87,0.56c0.74,0.01,1.78-0.06,2.07-0.83C59.46,22.08,60.09,21.42,60.62,21.4z"/>
			</g>
			<g>
				<path class="st0" d="M62.54,19.37c0.16,0.81,0.47,3.15-1.21,4.19c0.62-0.76,1.28-2.7,0.24-4.12c-0.68-0.93-1.34-1.2-1.87-1.12
					c-0.17,0-0.38,0.05-0.64,0.2c-0.18,0.09-0.88,0.89-0.44,1.8c0.52,1.09,1.66,0.7,1.75-0.01c0.07-0.55-0.04-1.3-1.2-1.24
					c-0.01-0.09,0.08-0.28,0.14-0.33c0.3-0.08,0.7-0.04,1.14,0.38c0.89,0.86,0.71,2.06,0.44,2.67c-0.26,0.62-0.92,1.1-0.84,1.99
					c-0.47-0.12-1.16,0.61-0.9,1.34c0.13,0.37,0.52,0.78,1.15,0.73c0.43-0.04,0.66-0.28,0.6-0.56c-0.05-0.27-0.31-0.42-0.5-0.39
					c-0.19,0.02-0.43,0.32-0.6,0.23c-0.17-0.1,0.07-0.42,0.38-0.52c0.28-0.08,0.82-0.07,1.03,0.42c0.23,0.55-0.07,1.36-1.1,1.26
					c-0.22-0.02-0.66-0.14-0.81-0.25c-0.15-0.11-0.32-0.29-0.54-0.04c-0.23,0.24-0.2,0.71,0.7,1.19c0.91,0.47,2.35-0.01,2.82-0.71
					c0.47-0.7,0.21-1.33,0.21-1.33S64.15,23.39,62.54,19.37z"/>
			</g>
			<g>
				<g>
					<path class="st0" d="M65.44,26.79c-0.05,0.14-0.08,0.27-0.17,0.4c-0.42,0.56-1.05,0.63-1.46,0.42
						c-0.35-0.19-0.48-0.63-0.38-1.01c0.09-0.35,0.22-0.48,0.41-0.59c0.19-0.12,0.67-0.24,0.75,0.09c0.19,0.72-0.8-0.17-0.82,0.62
						c-0.01,0.28,0.16,0.42,0.24,0.47c0.24,0.13,0.62,0.07,0.89-0.28c0.25-0.34,0.3-0.74,0.13-1.09c-0.13-0.27-0.38-0.44-0.64-0.43
						c-0.4,0.01-0.87,0.24-1.11,0.61c-0.3,0.48-0.36,1.07-0.11,1.73c0.36,0.96,1.59,1.29,2.63,1.08
						C65.72,28.14,65.58,27.43,65.44,26.79z M62.8,28.03c-0.2-0.53-0.14-1.47-0.14-1.47s-0.3,0.8-1.46,1.2
						c1.16,2.2,0.28,3.39,1.1,5.33c0.35,0.83,0.81,1.03,1.2,1.01c0.7-0.03,1.05-0.76,0.8-1.3c-0.34-0.71-1.22-0.35-1.28,0.04
						c-0.27,0.13-1.3-1.91,0.47-2.88c0.6-0.34,1.93-0.16,2.52,0.25c-0.04-0.31-0.07-0.58-0.1-0.93
						C65.02,29.37,63.27,29.26,62.8,28.03z"/>
				</g>
			</g>
			<g>
				<path class="st0" d="M61.89,18.76c0,0-1.41-1.7-2.91-0.85c-0.52,0.29-0.92,1.04-0.95,1.81c-0.01,0.06-0.88-1.35-1.39-1.9
					c-0.62-0.66-2.47-2.35-2.23-2.22c0.58,0.34,2.11,0.76,2.11,0.76c-0.19-0.54-1.2-1.38-2.73-3.31c1.99,1.35,2.42,1.99,5.56,2.28
					C59.34,15.33,60.95,17.14,61.89,18.76z"/>
			</g>
			<g>
				<g>
					<path class="st0" d="M44.03,58.73c0,0,1.54,0.17,2.15-0.74c0.38-0.59-0.07-1.12-0.07-1.12s1-0.35,0.37-1.28
						c-0.25-0.37-0.87-0.38-0.87-0.38s0.09-0.87-0.51-1.37c0,0-0.9-0.02-1.78-0.7c0,0-1.3,0.14-2.17-1.12c0,0,0.72,1.36,0.67,1.83
						c0,0,0.82,0.25,1.37,0.29c0.55,0.04,1.1,0.43,1.14,1.05c0.05,0.62-0.07,0.79-0.07,0.79s0.84,0.29,0.71,1.24
						c-0.15,0.96-1.18,1.17-1.18,1.17L44.03,58.73z"/>
					<path class="st0" d="M43.77,55.72c0,0-0.58-0.25-0.86-0.31c-0.29-0.05-0.87-0.36-1.08-0.72c0,0,0.2-0.21,0.18-0.39
						c0,0,0.6,0.23,0.88,0.22c0.27-0.01,0.6-0.01,0.83,0.29C43.94,55.09,43.77,55.72,43.77,55.72"/>
					<path class="st0" d="M31.29,54.34c0.54,0.21,0.8,0.87,1.08,0.88c0.66,0.01,1.34-1.52,1.34-1.52c1.65,0.55,1.87-0.53,2.19-1.11
						c0.31-0.57,0.41-0.36,1.68-0.77c1.28-0.4,1.76-1.98,1.76-1.98s-0.18,0.51-1.38,0.96c-1.21,0.45-2.08-0.4-2.7-0.28
						c-0.63,0.12-0.77,0.6-0.77,0.6s-0.67-0.25-1.09-0.1c-0.99,0.33-0.42,1.47,0.08,1.65c0.59,0.22,0.72-0.77,0.34-0.81
						c-0.36-0.04-0.29,0.46-0.4,0.47c-0.11,0-0.38-0.54,0.05-0.79c0.89-0.49,1.43,1.61,0.03,1.52c-1.14-0.08-1.13-1.52-1.13-1.52
						c-1.93-0.92-2.09,0.95-1.54,1.44c0.16,0.14,0.27,0.16,0.36,0.13c0.06-0.02,0.1-0.07,0.12-0.13c0.03-0.1,0.23-0.46,0.49-0.33
						c0.13,0.05,0.3,0.61-0.25,0.98C31.18,53.88,30.91,54.2,31.29,54.34z"/>
					<path class="st0" d="M45.04,59.91c-1.21-0.17-1.53-0.98-1.84-1.53c0,0,0.48-1.33-0.49-2.09c-0.96-0.76-1.41-0.08-1.41-0.08
						s-1.3-2.54-3.38-0.78c-0.77,0.65-0.93,1.94-0.93,1.94s1.88-1.86,3.27-0.76c1.41,1.11,0.47,3.36-2.6,3.56
						c-0.06,0-1.01-0.02-1.69-0.15c-1.74-0.31-2.68-0.85-2.43-1.92c0.25-0.7,0.88-0.77,1.26-0.73c0.85,0.1,0.96,1.18,0.38,1.3
						c-0.48,0.1-0.39-0.34-0.44-0.68c-0.04-0.36-0.53-0.16-0.7,0.25c-0.17,0.41,0.39,0.92,0.87,0.97c0.56,0.07,1.58-0.46,1.37-1.61
						c-0.15-0.82-1.52-2.04-3.58-0.23c-1.39,1.22-2.13,0.28-2.46-0.24c-0.14-0.21-0.22-0.39-0.06-0.43
						c0.48-0.13,0.54,1.25,1.37,0.49c0.84-0.75,0.23-3.63-2.69-2.19c0,0,0.31,2.04-1.49,2.18c-1.58,0.12-1.45-2.62,0.11-1.95
						c0.67,0.29,0.17,1.26-0.13,1.19c-0.3-0.07,0.29-0.79-0.33-0.76c-0.61,0.03-0.3,1.24,0.49,1.13c0.8-0.12,1.61-2.03,0.09-2.54
						c-0.65-0.22-1.66,0.19-1.66,0.19s-0.22-0.72-1.18-0.89c-0.96-0.17-2.27,1.15-4.12,0.48c-1.84-0.67-2.13-1.45-2.13-1.45
						s0.76,2.4,2.72,3c1.96,0.59,2.09,0.26,2.59,1.13c0.5,0.87,0.84,2.52,3.35,1.65c0,0,1.02,1.54,2.13,1.83
						c1.1,0.28,2.06-0.43,2.06-0.43s2.65,1.41,3.55,1.69c0.9,0.28,1.84,0.31,2.35,0.3c1.6-0.07,2.91-0.55,4.97-1.46
						c0.55-0.24,1.72-0.13,2.61,0.16C44.85,60.42,44.89,60.26,45.04,59.91z"/>
				</g>
			</g>
			<g>
				<path class="st0" d="M56.98,12.49c0,0-1.11-0.41-1.55-0.62c-0.29-0.14-0.64-0.45-0.64-0.45s0.61,1.08,1.42,1.46
					c0.74,0.35,1.92,0.72,1.92,0.72s-0.67-0.76-0.94-0.98"/>
			</g>
			<g>
				<g>
					<path class="st0" d="M39.13,38.95c0,0,0.39-1.08-0.62-1.57c-1-0.49-1.64,0.29-1.64,0.29c-0.28-1.28-1.81-1.35-2.55-0.78
						c-0.74,0.58-1.56,2.03-1.45,3.55c0.13,1.91,1.34,2.61,1.34,2.61c-1.17,0.55-2.21,3.05-0.85,4.6c1.57,1.79,3.24-0.1,3.24-0.1
						c0.41,0.76,1.34,0.98,2.15,0.32c0.81-0.66,0.48-1.5,0.48-1.5s0.35,0.05,1.09-0.56c0.75-0.6,0.61-1.43,0.72-2.07
						c0.1-0.65,0.89-1.4,0.89-1.4s-0.1-0.11-0.44-0.6c-0.34-0.49-0.11-1.15-0.96-2.25C40.06,38.88,39.13,38.95,39.13,38.95z
						 M40.34,40.14c0.38,0.74,0.4,1.83,0.95,2.23c0,0-0.73,1.06-0.81,1.52c-0.07,0.46-0.07,1.09-0.53,1.52
						c-0.46,0.43-0.92,0.5-1.07,0.27c-0.15-0.23,0.39-0.32,0.39-0.32c-0.48-0.42-0.91,0.07-0.77,0.51c0,0-0.9,0.04-0.47,0.99
						c0,0,0.32-0.52,0.48-0.28c0.16,0.25,0.06,0.77-0.43,1.03c-0.49,0.26-1.07,0-1.02-0.28c0.06-0.29,0.45-0.08,0.53,0.02
						c0,0,0.06-0.52-0.4-0.69c-0.45-0.18-0.56,0.23-0.56,0.23s-0.29-0.39-0.73-0.23c-0.44,0.16-0.37,0.6-0.37,0.6
						s0.26-0.24,0.41-0.01c0.15,0.23-1.2,1.42-2.35-0.11c-1.15-1.53,0.62-3.69,0.93-3.52c0.31,0.17,0.12,0.58,0.12,0.58
						s0.77-0.26,0.34-0.98c0,0,0.5-0.47,0.13-0.93c-0.23-0.3-0.61-0.32-0.61-0.32s0.35,0.5,0.02,0.67c-0.33,0.16-1.18-1.25-1.22-2.7
						c-0.03-1.45,1.2-2.83,2.06-2.77c0.85,0.07,0.91,0.52,0.85,0.7c-0.07,0.18-0.18,0.34-0.49,0.11c0,0,0.1,0.82,1.08,0.43
						c0,0,0.48,0.64,0.94,0.01c0,0-0.66-0.13-0.4-0.48c0.25-0.35,0.88-0.16,1.07,0.09c0.19,0.25,0.27,0.82,0.03,1
						c-0.23,0.18-0.48-0.18-0.44-0.45c0,0-0.57,0.9,0.3,1.11c0,0,0.17,0.9,0.88,0.19c0,0-0.4-0.25-0.21-0.43
						C39.18,39.28,39.96,39.41,40.34,40.14z"/>
					<path class="st0" d="M34.99,45.36c0,0,0.34-0.31,0.04-0.58c-0.18-0.14-0.47-0.13-0.47-0.13s0.3,0.22-0.02,0.47
						c-0.31,0.25-0.98,0.67-0.48,1.44c0.09,0.14,0.34,0.15,0.43,0.41c0.09,0.26,0.07,0.4,0.01,0.47c0,0,0.52-0.17,0.39-0.66
						l0.04-0.08c0,0,0.39-0.05,0.63-0.39c0.23-0.33,0.29-0.53,0.53-0.48c0.24,0.04,0.18,0.25,0.07,0.35
						c-0.12,0.09-0.05,0.24,0.07,0.33c0.13,0.08,0.5-0.25,0.33-0.63c-0.16-0.38-0.21-0.43-0.21-0.43s0.47,0.2,0.78-0.15
						c0.13-0.15,0.28-0.4,0.28-0.4s-0.3,0.14-0.76,0.07c-0.44-0.07-0.85,0.17-1.09,0.6c-0.25,0.42-0.82,1-1.21,0.58
						c-0.14-0.16,0.16-0.66,0.34-0.44c0.07,0.09,0.05,0.27,0.05,0.27S35.28,45.85,34.99,45.36z"/>
					<path class="st0" d="M34.45,41.68c0,0,0.21-0.2,0-0.5c-0.21-0.3-0.77-0.96-0.49-1.69c0.28-0.73,0.91-1,0.67-1.54
						c0,0,0.74,0.23,0.39,0.98c0,0,0.49-0.11,0.73,0.2c0.24,0.31,0.4,0.39,0.51,0.3c0.1-0.1-0.11-0.27,0.02-0.34
						c0.12-0.07,0.54,0.13,0.34,0.49c-0.2,0.37-0.84,0.18-0.84,0.18s0.17,0.32,0.76,0.45c0.28,0.07,0.51,0.21,0.54,0.43
						c0.02,0.21,0.04,0.41,0.04,0.41s-1.47-0.73-1.55-0.82c-0.09-0.1-0.2-0.76-0.73-0.8c-0.53-0.04-0.64,0.67-0.41,0.9
						c0.24,0.22,0.51-0.15,0.24-0.48c0,0,0.54,0.01,0.55,0.57c0.01,0.27-0.36,0.39-0.36,0.39S35.2,41.4,34.45,41.68z"/>
					<path class="st0" d="M36.14,41.8c-0.54,0.5-0.59,1.36-0.11,1.93c0.49,0.56,1.32,0.61,1.86,0.1c0.54-0.5,0.58-1.36,0.1-1.92
						C37.51,41.35,36.68,41.3,36.14,41.8z M37.55,43.43c-0.33,0.31-0.83,0.28-1.13-0.06c-0.3-0.34-0.27-0.87,0.06-1.18
						c0.33-0.3,0.83-0.28,1.13,0.07C37.91,42.6,37.89,43.13,37.55,43.43z"/>
					<path class="st0" d="M39.47,40.6c-0.18,0.09-0.23,0.39-0.23,0.39s0.34-0.24,0.62,0.15c0.28,0.38,0.09,0.52,0.09,0.52
						s-0.27-0.28-0.56,0.14c0,0-0.24-0.04-0.39,0.09c-0.14,0.14,0,0.45,0,0.45s-0.33,0.12-0.22,0.39c0.12,0.27,0.36,0.18,0.36,0.18
						s-0.09,0.16,0.01,0.3c0.1,0.14,0.37,0.1,0.37,0.1s-0.04,0.14,0.05,0.22c0.08,0.07,0.26-0.08,0.26-0.08s0.17,0.28-0.06,0.52
						c-0.24,0.24-0.57,0.19-0.57,0.19s0.3,0.79,0.79,0.39c0.5-0.4,0.21-1.24,0.52-1.66c0.3-0.41,0.46-0.43,0.46-0.43
						s-0.36-0.17-0.53-0.92C40.27,40.8,39.9,40.39,39.47,40.6z M40.03,42.84c-0.16,0.15-0.4,0.13-0.55-0.03
						c-0.14-0.16-0.13-0.41,0.04-0.56c0.16-0.15,0.4-0.13,0.54,0.03C40.2,42.44,40.19,42.69,40.03,42.84z"/>
					<path class="st0" d="M51.06,30.32c-3.71,1.96-4.9,6.32-6.41,8.4c-1.32,1.83-3.18,2.26-3.18,2.26c0.21,0.89,0.83,1.28,0.83,1.28
						c-1.07,1-1.05,2.3-1.05,2.3s2.19-0.65,4.48-2.28c2.3-1.61,2.31-3.93,3.53-6.13c1.06-1.9,2.82-2.21,2.82-2.21
						c-0.69-0.61-0.34-1.84-0.34-1.84C50.83,31.48,51.06,30.32,51.06,30.32z M44.5,41.33c0,0-0.11,0.47-0.64,0.51
						c-0.52,0.03-0.53-0.21-0.68-0.03c-0.14,0.19,0.14,0.33,0.43,0.31c0,0-0.27,0.36-0.51,0.3c-0.25-0.05-0.25-0.23-0.25-0.23
						s-0.46,0.62,0.29,0.59c0,0-0.68,0.82-0.98-0.09c-0.05-0.2,0.31-0.48,0.31-0.48s-0.56-0.07-0.36-0.7
						c0.05-0.16,0.53-0.04,0.53-0.04s-0.33,0.25-0.16,0.44c0.16,0.19,0.35-0.01,0.45-0.19c0.1-0.17,0.4-0.31,0.61-0.28
						c0.22,0.03,0.44,0.2,0.61-0.05c0.18-0.24-0.17-0.42-0.27-0.29c-0.11,0.13-0.05,0.25-0.05,0.25s-0.48-0.33-0.12-0.65
						c0.35-0.32,0.7,0.18,0.7,0.18l0.22-0.26c0,0-0.53,0.19-0.61-0.29c-0.03-0.21,0.43-0.63,0.43-0.63s-0.13,0.42,0.01,0.56
						c0.14,0.13,0.35,0,0.35,0s0.09,0.14,0.28,0.16c0,0-0.2,0.25-0.1,0.41c0.1,0.18,0.56-0.09,0.56-0.09S45.37,41.72,44.5,41.33z
						 M46.69,39.65c-0.43,0.64-0.94,0.93-1.58,0.68c-0.64-0.25-0.23-1.16-0.23-1.16s-0.21,0.75,0.39,0.88
						c0.78,0.17,1.21-0.66,1.19-1.22c-0.01-0.54-0.84-0.41-0.84-0.41s0.48-0.6,0.97-0.24C47.08,38.54,46.97,39.22,46.69,39.65z
						 M51.48,32.28c0.11,0.37-0.11,0.77-0.41,0.98c-0.28,0.22-0.78,0.32-0.78,0.32s0.16,0.45-0.2,0.74
						c-0.12,0.09-0.45,0.13-0.55-0.15c-0.1-0.28,0.42-0.23,0.32-0.43c-0.09-0.19-0.49-0.21-0.59,0.51
						c-0.11,0.72-0.41,1.26-0.85,1.54c0,0,0.18,0.46-0.12,0.65c-0.29,0.19-0.45-0.13-0.35-0.31c0.1-0.17-0.05-0.31-0.22-0.19
						c-0.17,0.12-0.09,0.59,0.04,0.91c0.13,0.31,0.02,0.79-0.48,0.85c0,0,0.55,0.49,0,0.97c0,0,0.05-0.32-0.18-0.49
						c-0.15-0.09-0.22,0.13-0.22,0.13s-0.11-0.24-0.42-0.29c0,0,0.14-0.15-0.09-0.28c-0.23-0.12-0.33,0.17-0.33,0.17
						s-0.16-0.62,0.65-0.6c0,0-0.15-0.33,0.29-0.57c0,0-0.19,0.39,0.17,0.53c0.37,0.15,0.24-0.41,0.12-0.8
						c-0.12-0.4-0.06-0.75,0.22-0.98c0.35-0.29,0.54-0.05,0.72-0.21c0.17-0.16,0.21-0.42,0-0.55c0,0-0.33,0.59-0.68,0.22
						c-0.35-0.37,0.66-0.98,0.89-0.58c0.09,0.17,0.16,0.38,0.21,0.38c0.06,0.01,0.18-0.7,0.27-0.99c0.1-0.29,0.44-0.72,0.76-0.73
						c0.29,0,0.43,0.18,0.43,0.18s0.21-0.01,0.25-0.28c0.03-0.28-0.18-0.34-0.14-0.41c0.06-0.07,0.54-0.31,0.61,0.24
						c0.01,0.06,0.17-0.04,0.2-0.14c0.03-0.11,0.02-0.3-0.12-0.37c-0.13-0.07-0.32-0.15-0.24-0.23
						C50.78,31.97,51.38,31.9,51.48,32.28z"/>
					<path class="st0" d="M41.61,44.78l0.56,0.36c0,0,3.09-0.89,4.7-2.61c1.6-1.72,2.13-3.81,2.6-5.04c0.47-1.24,1.24-2.6,3.22-3.06
						l-0.37-0.27c0,0-1.51,0.34-2.21,1.32c-0.69,0.99-1.13,2.01-1.49,2.99c-0.36,0.99-0.81,3.15-3.51,4.74
						C44.54,43.55,41.61,44.78,41.61,44.78z"/>
					<path class="st0" d="M54.9,28.97c0,0-0.15-0.36-0.42-0.7c-0.35-0.44-1.06-0.72-1.58-0.34c-1.2,0.87-0.59,1.61-0.59,1.61
						s-1.03,0.56-0.9,1.45c0.08,0.56,0.71,1.06,0.71,1.06s-0.28,0.76-0.04,1.32c0.41,0.96,1.37,0.84,1.37,0.84
						c0.08,0.39,0.71,1.32,1.63,0.81c0.92-0.51,0.76-1.64,0.76-1.64s0.61,0.02,1.2-0.53c0.59-0.55,1.36-1.72,0.3-3.13
						C56.28,28.33,54.9,28.97,54.9,28.97z M57.26,30.37c0.49,1.01-0.28,2.23-1.03,2.53c-0.75,0.29-0.72-0.21-0.51-0.39
						c0,0-0.41-0.36-0.61,0.3c0,0-0.68,0.08-0.26,0.85c0,0,0.12-0.65,0.39-0.29c0.27,0.37,0.07,0.98-0.41,1.13
						c-0.48,0.15-1.06-0.22-0.86-0.52c0.12-0.19,0.44,0,0.44,0s0-0.61-0.51-0.51c0,0-0.12-0.34-0.52-0.24
						c-0.4,0.1-0.3,0.22-0.3,0.22s0.43,0.05,0.22,0.25c-0.22,0.19-0.6-0.09-0.78-0.45c-0.18-0.35-0.07-0.81,0.17-0.96
						c0.24-0.14,0.38,0.12,0.36,0.25c0,0,0.32-0.46-0.11-0.7c0,0,0.16-0.35-0.08-0.57c-0.23-0.21-0.41-0.15-0.41-0.15
						s0.3,0.3,0.04,0.52c-0.27,0.22-0.83-0.33-0.65-0.84c0.18-0.51,0.53-0.88,0.72-0.66c0.19,0.22-0.03,0.32-0.03,0.32
						s0.75-0.06,0.38-0.62c0,0,0.36-0.2,0.24-0.59c-0.13-0.39-0.3-0.32-0.3-0.32c0.02,0.33-0.29,0.59-0.42,0.29
						c-0.13-0.31,0.47-0.98,0.88-0.98c0.41-0.01,1.28,0.28,1.12,0.72c-0.16,0.44-0.56-0.15-0.56-0.15s-0.1,0.84,0.64,0.69
						c0,0,0.14,0.61,0.89,0.35c0,0-0.47-0.22-0.19-0.55C55.49,29.01,56.77,29.36,57.26,30.37z"/>
					<path class="st0" d="M53.73,30.36c-0.45,0.42-0.49,1.13-0.09,1.59c0.4,0.47,1.09,0.51,1.54,0.08c0.45-0.41,0.48-1.12,0.09-1.59
						C54.86,29.99,54.18,29.95,53.73,30.36z M54.92,31.74c-0.28,0.27-0.73,0.24-0.99-0.06c-0.26-0.3-0.23-0.76,0.06-1.03
						c0.29-0.27,0.73-0.24,0.99,0.06C55.23,31.02,55.21,31.47,54.92,31.74z"/>
					<path class="st0" d="M56.29,30.43c-0.21,0.19-0.23,0.53-0.04,0.75c0.19,0.22,0.51,0.24,0.73,0.05c0.21-0.2,0.22-0.54,0.04-0.76
						C56.83,30.25,56.5,30.23,56.29,30.43z M56.8,31.02c-0.1,0.09-0.26,0.08-0.34-0.02c-0.09-0.11-0.09-0.27,0.02-0.36
						c0.1-0.09,0.26-0.09,0.35,0.02C56.91,30.76,56.89,30.93,56.8,31.02z"/>
					<path class="st0" d="M55.1,35.37l0.62,0.02c0,0,0.52-0.11,0.75-0.55c0.22-0.44,0.22-0.92,0.22-0.92l-0.55-0.26
						C56.13,33.67,56.23,34.8,55.1,35.37z"/>
					<path class="st0" d="M56.3,33.53l0.52,0.25c0,0,1.76-0.35,1.84-2.59c0.03-0.87-0.43-1.69-1.77-2.25
						c-0.13-0.05-0.39-0.13-0.39-0.13s1.84,0.83,1.67,2.46C57.99,32.9,56.3,33.53,56.3,33.53z"/>
					<path class="st0" d="M42.02,45.3l-0.7-0.43c0,0-0.17,0.82-0.78,1.24c-0.63,0.43-0.99,0.48-0.99,0.48l0.91,0.33
						C40.46,46.92,41.75,46.33,42.02,45.3z"/>
					<path class="st0" d="M40.37,47.13l-0.86-0.32c0,0,0.19,0.69-0.43,1.23c-0.61,0.53-0.99,0.51-0.99,0.51l0.95,0.21
						C39.05,48.76,40.28,48.44,40.37,47.13z"/>
					<path class="st0" d="M37.39,48.55c0,0-0.53-0.1-0.85-0.6c0,0-0.57,0.87-1.81,0.82C34.73,48.76,35.92,49.6,37.39,48.55z"/>
				</g>
			</g>
			<g>
				<path class="st0" d="M21.94,50.15l-0.9-0.29c0,0-1.2,1.63-2.25,1.09c-0.63-0.32-0.63-1.29-0.34-1.28
					c0.28,0.01,0.1,0.8,0.67,0.52c0.58-0.28,0.62-1.98-1.21-1.68c0,0,0.01,1.15-1.07,0.94c-1.07-0.21-0.26-1.69,0.37-1.02
					c0.25,0.26-0.17,0.42-0.17,0.42s0.19-0.27-0.16-0.36c-0.35-0.1-0.36,0.68,0.1,0.75c0.46,0.07,1.21-0.85,0.46-1.41
					c-0.32-0.24-0.93-0.19-0.93-0.19s0-0.44-0.5-0.71c-0.5-0.27-1.43,0.24-2.33-0.45c-0.89-0.7-0.93-1.19-0.93-1.19
					s0.02,1.49,1,2.16c0.96,0.68,1.1,0.51,1.23,1.09c0.13,0.58,0.05,1.57,1.56,1.51c0,0,0.31,1.05,0.86,1.41
					c0.56,0.35,1.2,0.12,1.2,0.12s0.12,0.39,0.82,0.46c0,0,0.15,0.91,1.07,1.22c0.92,0.3,1.3-0.31,1.79,0.25
					c0,0,0.02-0.62-1.15-0.97c-1.16-0.34-0.32-1.42,0.46-2.11L21.94,50.15z"/>
			</g>
			<g>
				<path class="st0" d="M14.2,30.97c0,0,1.03-0.81,1.74-0.31c0.72,0.51,0.24,1.18,0.06,1.27c-0.46,0.25-0.79-0.21-0.5-0.34
					c0.23-0.11,0.54-0.51,0.32-0.72c-0.21-0.21-1.08-0.19-0.66,0.92c0.45,1.2,2.28-0.2,1.32-1.34c-0.96-1.14-2.2,0.13-2.2,0.13
					L14.2,30.97z"/>
			</g>
			<g>
				<path class="st0" d="M11.58,36.14c0,0-0.25-0.55-0.38-0.76c-0.2-0.29-0.36-0.57-0.36-0.57s-0.03-0.68,0.65-1.58
					c0.69-0.9,2.12-2.56,1.34-3.62c-0.78-1.06-2.03-0.86-2.5,0.28c-0.47,1.13,0.74,1.62,1.35,0.98c0,0-0.56,1.59-1.83,0.65
					c-1.26-0.94-0.15-4.42,2.57-3.61c2.76,0.83,1.12,4.07,1.12,4.07s1.46-0.64,1.89,0.64c0.42,1.28-0.66,2.49-1.6,1.92
					c-0.95-0.58,0.04-1.81,0.68-1.44c0,0-0.51,0.07-0.68,0.44c-0.09,0.19-0.04,0.51,0.24,0.68c0.76,0.46,1.28-1.31,0.48-1.53
					C13.75,32.48,11.87,33.81,11.58,36.14"/>
			</g>
			<g>
				<path class="st0" d="M15.72,23.99c0,0,0.89,0.55,0.6,1.33c-0.3,0.78-1.04,0.54-1.4-0.78c-0.3-1.1-0.35-2.04,0.11-3.15
					c0.01-0.02,0.02-0.02,0.03-0.04c0.81-0.9,2.85-3.47,3.2-4.11c0.36-0.65,1.13-2.17,1.23-2.53c0.1-0.37,0.04-0.46-0.07-0.15
					c-0.11,0.31-0.27,0.6-2.01,3.02c-1.75,2.42-4.5,2.48-5.59,4.42c-1.05,1.89-1.11,5.12-1.11,5.12s2.68-0.82,3.63,1.72
					c0.21,0.55,0.17,1.13,0.17,1.13s0.46-0.8,0.57-1.21c0,0-1.11-1.7-1.23-3.29c-0.05-0.67-0.02-2.14,0.18-2.94
					c-0.08,0.5-0.09,1.69,0.01,2.1c0.18,0.7,0.31,0.85,0.75,1.69c0.29,0.56,0.3,1.27,0.27,1.71c0,0,0.51-0.77,0.85-1.17
					c0,0,0.56,0,0.76-0.53c0.21-0.54-0.09-0.64-0.09-0.64s0.86-0.96-0.02-1.6C16.23,23.88,15.72,23.99,15.72,23.99z"/>
			</g>
			<g>
				<path class="st0" d="M31.98,5.37c-1.19,0.52-0.93,0.88-1.52,0.69c-0.59-0.2-1.42-0.82-2.25,0.69c0,0-1.11-0.28-1.74,0.07
					c-0.45,0.26-0.67,0.72-0.75,0.96c-1.77,0.05-6,2.79-6.47,3.46c0.06-0.26,0.33-0.6,0.03-1.68c-0.06,1.14-1.6,3-2.42,3.53
					c-0.82,0.53-1.31,1.36-1.44,2.07c-0.04-0.24-0.16-0.71-0.43-1.26c0.17,0.47-0.19,1.21-0.99,2.53c-0.8,1.31,0.44,2.94,0.44,2.94
					s0.72-0.25,1.33-0.81c0-0.59-0.04-1.89-0.2-2.21c0.22,0.35,0.43,1.34,0.54,1.9c0.19-0.18,0.38-0.35,0.56-0.52
					c0.18-0.17,0.36-0.38,0.54-0.6c-0.09-0.47-0.22-1.35-0.11-1.96c0.15-0.88,1.03-1.62,1.03-1.62c-0.36,0.52-0.82,1.76-0.4,2.87
					c0.42-0.6,0.8-1.23,1.09-1.6c0.52-0.68,0.76-1.55,1.11-1.42c0.35,0.14,0.27,0.5,0.01,1.33c-0.11,0.37-0.56,1.21-1.07,2.12
					c0.29-0.05,0.85-0.26,1.63-1.07c-0.56,0.84-1.11,1.58-2.05,1.8c-0.23,0.39-0.52,0.67-0.73,1.01c0.28,0,0.84,0.07,1.26-0.2
					c0.61-0.39,1.06-0.55,1.06-0.55c-0.71,0.52-1.17,0.82-1.56,1c-0.28,0.12-0.72,0.09-0.97,0.05c-0.19,0.31-0.49,0.5-0.61,0.69
					c1.61-0.03,3.27-1.01,4.01-1.73c0.74-0.71,0.79-1.02,1.2-1.77c-0.19,0.33-1.15,0.83-1.63,0.56c1.01-0.51,1.56-1.59,1.74-1.96
					c0.18-0.37,0.79-0.76,1.18-0.99c-0.68-0.13-1.23,0.65-1.91,0.82c0,0,0.28-0.41,0.51-0.84c0.04-0.09,0.1-0.19,0.15-0.3
					c0.02-0.05,0.03-0.09,0.05-0.13c1.37-2.97,3.87-5.04,4.51-4.99c0.63,0.06,0.86,0.4,0.79,0.53c-0.01,0.01-0.03,0.02-0.04,0.03
					c0,0.01,0,0.01,0,0.01c-0.04,0.07-0.1,0.08-0.17,0.08c-0.12,0.03-0.25,0.02-0.34-0.02c-0.05-0.03-0.11-0.04-0.17-0.02
					c-0.08,0.04-0.15,0.13-0.18,0.34c-0.09,0.71,1.4,1.69,2.2-0.26c0,0-1.03-0.63-0.22-1.57c0.81-0.93,1.65,0.67,0.69,0.92
					C28.9,8.41,29,7.91,29,7.91s0.13,0.33,0.41,0.04c0.28-0.29-0.41-0.72-0.73-0.32c-0.33,0.4,0.07,1.66,0.98,1.24
					c0.4-0.19,0.71-0.82,0.71-0.82s0.4,0.24,0.92-0.1c0.52-0.34,0.01-1.39,1.15-1.91c0.83-0.38,1.62-0.23,1.62-0.23
					S32.94,4.95,31.98,5.37z"/>
			</g>
			<g>
				<path class="st0" d="M20.6,41.9c-0.24-0.11-0.53-0.24-0.81-0.04c-0.29,0.19-0.31,0.86-0.31,0.86s0.58-0.02,0.85,0.03
					c0.27,0.06,0.86-0.01,1.15-0.28c0,0-0.12-0.26-0.05-0.44C21.43,42.03,20.84,42.02,20.6,41.9z"/>
			</g>
			<g>
				<path class="st0" d="M18.5,44.7l0.37-0.47c0,0-0.32-0.14-0.47-0.48c0.01,0,0.02,0,0.02,0s-0.01-0.01-0.02-0.01
					c-0.06-0.14-0.1-0.31-0.07-0.54c0.11-0.76,0.92-0.68,0.92-0.68s-0.05-0.16,0.12-0.62c0.17-0.47,0.64-0.59,1.03-0.45
					c0.4,0.14,1.02,0.2,1.02,0.2c0.07-0.38,0.87-1.19,0.87-1.19c-0.89,0.69-1.77,0.19-1.77,0.19c-0.77,0.24-1.4-0.02-1.4-0.02
					c-0.52,0.2-0.65,0.88-0.65,0.88s-0.34-0.04-0.62,0.12c-0.73,0.38-0.09,0.98-0.09,0.98s-0.29,0.1-0.51,0.29
					c-0.01-0.03-0.03-0.05-0.03-0.07c-0.19-0.45-0.55-2.69-2.48-2.94c-1.93-0.24-2.6-1.34-2.83-2.1c-0.84-2.85-3.03-4.04-3.03-4.04
					c0.83,0.7,1.04,1.75,0.78,2.73c-0.26,0.98,0.52,1.67,0.52,1.67s-0.26,0.55-0.05,0.99c0.2,0.42,0.66,0.45,0.66,0.45
					s0.03,0.22-0.06,0.38c-0.07,1.15,0.53,1.22,0.88,1.3c0.35,0.08,0.84-0.21,0.63-0.58c-0.21-0.38-0.73,0.02-0.73,0.02
					c0.01-0.27,0.47-0.73,0.85-0.34c0.36,0.39,0.01,0.84,0.01,0.84c0.44,0.2,0.27,0.72,0.27,0.72s-0.27-0.72-0.89-0.31
					c-0.63,0.41,0.08,1.19,0.08,1.19s-0.5,0.7-0.18,1.02c0.7,0.72,1.21,0.18,1.21,0.18s0.55,1.36,1.63,0.53c1.08-0.84,0-1.82,0-1.82
					c0.09,0.6-0.82,0.96-1.25,0.59c-0.43-0.37-0.36-1.78,0.73-1.89c1.86-0.18,3.16,2.23,3.16,2.23c0.01,0.01,0.02,0.01,0.03,0.02
					C17.5,44.26,18.5,44.7,18.5,44.7z"/>
			</g>
			<g>
				<path class="st0" d="M20.64,48.33c-1.35-0.89-1.37-2.22-0.54-2.41c0.84-0.17,1.35,1.21,1.35,1.21s0.15-0.67-0.07-1.18
					c-0.62-1.39-1.67-0.49-1.67-0.49s-0.08-0.44-0.65-0.32c-0.58,0.13-0.6,0.9-0.6,0.9c-0.43,0.34-1.08,0.31-1.08,0.31
					c0.46,0.09,0.97,0.6,1.17,0.86c0.77,0.96,1.41,1.59,2.13,2.03c0.95,0.59,2.4,0.7,3.39,0.54c-0.01-0.17-0.02-0.71,0-0.89
					C22.82,49.26,21.8,49.09,20.64,48.33z"/>
			</g>
			<path class="st0" d="M37.52,9.68c-0.18-0.26-0.22-0.4-0.22-0.4s-1.04,0.81-1.98,0.62c0,0,1.38,0.7,2.58,0.18
				C37.9,10.08,37.73,9.98,37.52,9.68z"/>
			<path class="st0" d="M34.53,22.96c0-0.19-0.02-0.45-0.05-0.78c-0.02-0.06-0.06-0.15-0.09-0.23c-0.07-0.08-0.18-0.13-0.34-0.17
				c-0.09-0.02-0.34-0.03-0.77-0.03c-0.09,0-0.24,0.03-0.45,0.05c-0.5,0.1-0.76,0.28-0.74,0.58c0,0.05,0.05,0.13,0.17,0.24
				c0.1,0.11,0.2,0.16,0.26,0.16l1.08-0.01c0.42,0,0.65,0.08,0.65,0.24c0,0.16-0.11,0.3-0.3,0.38c-0.15,0.08-0.29,0.11-0.44,0.11
				c-0.03,0-0.15,0-0.38-0.01c-0.23,0-0.35,0-0.35,0c-0.12,0-0.24,0.02-0.36,0.07c-0.09,0.02-0.17,0.07-0.25,0.09
				c-0.12,0.07-0.19,0.11-0.2,0.11c-0.06,0.05-0.09,0.11-0.09,0.16c0,0.08,0.05,0.14,0.16,0.2c0.07,0.04,0.13,0.08,0.22,0.1
				c0.16,0.16,0.38,0.23,0.67,0.23c0.06,0,0.17,0,0.32-0.02c0.16,0,0.28-0.01,0.35-0.01c0.54-0.01,0.82-0.18,0.89-0.5
				c0-0.03,0-0.09,0.01-0.17c0.04-0.07,0.09-0.19,0.16-0.38c0-0.05-0.01-0.14-0.07-0.23C34.54,23.06,34.53,22.99,34.53,22.96z
				 M33.23,17.89c-0.18,0-0.34,0.05-0.45,0.13c-0.23,0.15-0.33,0.32-0.33,0.53c0,0.01,0.01,0.07,0.04,0.18
				c0.03,0.11,0.04,0.19,0.05,0.23c0,0.11,0.04,0.28,0.12,0.48c0.08,0.2,0.25,0.29,0.51,0.29c0.32,0,0.53-0.12,0.66-0.36
				c0.06-0.11,0.09-0.3,0.09-0.59c-0.02-0.21-0.07-0.38-0.11-0.49C33.64,18.02,33.45,17.89,33.23,17.89z M39.06,14.83H32.8
				l-4.42,4.46v6.31l4.42,4.47h6.25l4.42-4.47v-6.31L39.06,14.83z M35.26,27.36c-0.07,0.21-0.17,0.33-0.33,0.33
				c-0.18,0-0.28-0.12-0.32-0.33c-0.04-0.13-0.05-0.39-0.05-0.77c0-0.48-0.03-0.81-0.05-0.98c-0.08-0.38-0.29-0.56-0.64-0.58
				c-0.01,0-0.07,0.02-0.15,0.03c-0.1,0.02-0.15,0.02-0.16,0.02c-0.09,0-0.22,0.02-0.41,0.04c-0.19,0.04-0.33,0.04-0.43,0.04
				c-0.32,0-0.53,0.12-0.64,0.35c-0.17,0.35-0.28,0.66-0.31,0.96c-0.07,0.17-0.16,0.46-0.28,0.89c-0.02,0.09-0.11,0.19-0.22,0.27
				c-0.12,0.07-0.24,0.12-0.35,0.12c-0.08,0-0.14-0.06-0.22-0.15c-0.08-0.09-0.13-0.17-0.13-0.24c0-0.15,0.11-0.41,0.35-0.75
				c0.21-0.33,0.36-0.63,0.45-0.9c0.07-0.22,0.11-0.64,0.13-1.29c0-0.21,0.03-0.35,0.09-0.42c0.05-0.05,0.08-0.12,0.08-0.18
				c0-0.04-0.04-0.14-0.09-0.27c-0.07-0.14-0.09-0.25-0.09-0.35c0-0.19-0.01-0.46-0.02-0.83c-0.04-0.24-0.03-0.51,0.05-0.8
				c0-0.04,0.04-0.11,0.11-0.19c0.07-0.08,0.12-0.12,0.18-0.12c0.12,0,0.36-0.05,0.7-0.11c0.53-0.04,1.11-0.06,1.74-0.06
				c0.15,0,0.29,0.04,0.45,0.11c0.13,0.08,0.24,0.14,0.38,0.2c0.02,0.03,0.08,0.08,0.14,0.19c0.06,0.11,0.09,0.17,0.09,0.22
				c0,0.02-0.05,0.13-0.13,0.34v0.47c-0.01,0.27-0.08,0.46-0.19,0.59c-0.01,0.05-0.02,0.11-0.03,0.18
				c-0.01,0.07,0.03,0.16,0.12,0.29c0.08,0.13,0.13,0.26,0.13,0.35c0,0.02-0.01,0.08-0.04,0.16c-0.03,0.08-0.04,0.16-0.04,0.24
				c0.01,0.36,0.03,0.62,0.03,0.76c0,0.07,0.01,0.22,0.05,0.44c0.03,0.23,0.05,0.36,0.05,0.39c0,0.26,0.02,0.58,0.06,0.94
				C35.3,27.07,35.29,27.2,35.26,27.36z M35.73,20.28c-0.16,0.05-0.28,0.08-0.38,0.06c-0.41-0.04-0.75-0.04-0.99,0.01
				c-0.14,0.02-0.35,0.03-0.6,0.04c-0.21,0.01-0.53,0-0.93-0.02c-0.57,0.04-0.86,0.05-0.88,0.05c-0.02,0-0.1-0.01-0.25-0.04
				c-0.15-0.03-0.23-0.04-0.23-0.04c-0.01,0-0.11,0.07-0.28,0.19c-0.17,0.14-0.3,0.19-0.4,0.18c-0.16,0-0.28-0.02-0.34-0.08
				c-0.13-0.08-0.18-0.18-0.18-0.27c0-0.21,0.09-0.33,0.3-0.39c0.05-0.02,0.2-0.02,0.47-0.02c0.03,0,0.08,0.02,0.17,0.08
				c0.1,0.05,0.16,0.06,0.17,0.06c0.02,0,0.13-0.06,0.31-0.21c0.06-0.04,0.13-0.08,0.2-0.12c0.05-0.04,0.09-0.11,0.09-0.2
				c0-0.46-0.12-0.83-0.35-1.13c-0.16-0.18-0.32-0.28-0.49-0.3c-0.41-0.04-0.6-0.16-0.57-0.36c0-0.07,0.07-0.17,0.17-0.25
				c0.11-0.08,0.21-0.12,0.35-0.12h0.33c0.21,0.01,0.32,0.01,0.33,0.01c0.69,0,1.04-0.17,1.04-0.52c0-0.01-0.01-0.08-0.04-0.2
				c-0.01-0.12-0.01-0.19-0.01-0.2c0-0.32,0.12-0.47,0.37-0.47c0.43,0.03,0.66,0.16,0.66,0.4c0,0.05-0.03,0.14-0.07,0.26
				c-0.05,0.1-0.07,0.19-0.07,0.21c0,0.21,0.12,0.35,0.39,0.4c0.02,0.02,0.31,0.02,0.82-0.01c0.16,0,0.35,0.01,0.57,0.07
				c0.26,0.07,0.39,0.13,0.39,0.21c-0.02,0.37-0.16,0.56-0.42,0.56c-0.01,0-0.07,0-0.16-0.01c-0.09,0-0.14-0.01-0.16-0.01
				c-0.23,0-0.39,0.12-0.47,0.33c-0.05,0.12-0.06,0.35-0.06,0.67c0,0.19,0.05,0.33,0.16,0.4c0.15,0.12,0.43,0.19,0.85,0.2
				c0.32,0.03,0.49,0.12,0.49,0.31C36.01,20.13,35.91,20.22,35.73,20.28z M41.47,27.33c-0.16,0.11-0.32,0.16-0.48,0.15
				c-0.16-0.03-0.5-0.01-1.04,0.04c-0.06,0-0.35,0-0.82-0.03c-0.32-0.01-0.81-0.04-1.46-0.09c-0.32-0.06-0.6-0.25-0.86-0.6
				c-0.27-0.35-0.36-0.69-0.3-1.01c-0.03-0.18-0.05-0.44-0.05-0.75c-0.01-0.4-0.01-0.9-0.01-1.51c0-0.08-0.01-0.19-0.02-0.34
				c-0.02-0.13-0.02-0.24-0.02-0.3c0-0.11,0-0.31,0.02-0.58c0.01-0.24,0.02-0.43,0.02-0.58c-0.01-0.37-0.01-0.57-0.01-0.57
				c0-0.06,0.01-0.19,0.06-0.37c0.01-0.14,0.01-0.23,0-0.29c-0.03-0.09,0.01-0.2,0.15-0.33c0.12-0.03,0.27-0.08,0.42-0.13
				c-0.02,0,0.07,0.03,0.29,0.07c0.21,0.06,0.4,0.09,0.56,0.08l1.41-0.05c0.54-0.02,0.82-0.13,0.82-0.34c0-0.35-0.04-0.57-0.1-0.66
				c-0.11-0.11-0.28-0.16-0.55-0.16c-0.02,0-0.05,0.01-0.12,0.01c-0.09,0.01-0.14,0.01-0.16,0.01c-0.08,0-0.17-0.01-0.29-0.06
				c-0.12-0.04-0.2-0.06-0.25-0.06c-0.14,0.06-0.42,0.15-0.84,0.23c-0.4,0.03-0.74,0.09-1.02,0.2c-0.08,0.02-0.16-0.01-0.27-0.13
				c-0.11-0.11-0.16-0.23-0.13-0.33c0-0.08,0.05-0.2,0.13-0.35c0.08-0.15,0.13-0.27,0.13-0.35c-0.02-0.38-0.04-0.67-0.07-0.9
				c-0.06-0.39-0.09-0.6-0.09-0.63c-0.01-0.08,0.02-0.18,0.08-0.31c0.06-0.14,0.15-0.19,0.25-0.19c0.19,0,0.33,0.09,0.43,0.28
				c0,0.11,0.01,0.23,0.05,0.39c0.03,0.1,0.11,0.15,0.24,0.18c0.13,0.02,0.32,0.05,0.58,0.08c0.07,0.02,0.15,0.03,0.25,0.05
				c0.1,0.03,0.15,0.03,0.17,0.03c-0.01,0,0.03-0.01,0.12-0.05c0.08-0.04,0.17-0.05,0.28-0.05c0,0,0.4,0,1.19-0.03
				c0.52,0,0.79,0.11,0.79,0.34c0,0.1-0.08,0.2-0.21,0.28c-0.15,0.08-0.28,0.14-0.38,0.14c-0.03,0-0.14,0-0.35-0.03
				c-0.21-0.01-0.33-0.02-0.39-0.02c-0.05,0-0.14,0.01-0.24,0.02c-0.1,0.03-0.2,0.03-0.25,0.02c-0.07,0-0.16-0.04-0.25-0.12
				c-0.11-0.08-0.2-0.1-0.29-0.1c-0.05,0-0.09,0.02-0.14,0.08c-0.05,0.05-0.11,0.08-0.15,0.08c-0.16,0-0.37,0-0.61,0.03
				c-0.16,0.02-0.27,0.12-0.35,0.26c-0.02,0.05-0.04,0.15-0.04,0.28c0,0.12,0.08,0.2,0.24,0.24c0.06,0,0.17-0.01,0.36-0.06
				c0.1,0,0.3,0.05,0.6,0.15c0,0,0.08-0.02,0.24-0.06c0.16-0.05,0.26-0.07,0.33-0.07l1.09-0.04c0.53-0.01,0.8,0.32,0.8,1.01
				c0,0.62-0.21,1.02-0.62,1.18c-0.32,0.13-0.69,0.18-1.12,0.18h-0.65c-0.19,0-0.39,0.06-0.62,0.14c-0.41,0.16-0.61,0.31-0.61,0.44
				c0,0.08,0.04,0.18,0.15,0.27c0.11,0.11,0.19,0.15,0.27,0.15c0.02,0,0.07,0,0.14-0.01c0.05,0,0.1-0.02,0.15-0.02
				c0.13,0,0.34,0.08,0.61,0.22c0.02,0,0.05-0.01,0.1-0.05c0.05-0.02,0.11-0.04,0.19-0.07c0.07-0.02,0.24-0.04,0.52-0.04
				c0.28,0,0.39,0,0.37-0.02c0.52,0,0.79,0.1,0.79,0.28c-0.02,0.27-0.16,0.4-0.43,0.4c-0.4,0-0.79-0.04-1.16-0.13
				c-0.01,0-0.07-0.02-0.16-0.08c-0.09-0.05-0.15-0.08-0.18-0.08c-0.02,0-0.11,0.06-0.27,0.14c-0.15,0.08-0.29,0.12-0.39,0.12
				c-0.02,0-0.08,0-0.19-0.01c-0.12,0-0.19-0.01-0.2-0.01c-0.32,0-0.47,0.14-0.46,0.43c0,0.16,0.11,0.28,0.35,0.36
				c0.17,0.05,0.34,0.11,0.53,0.15c0.17,0.1,0.25,0.16,0.24,0.16c0.04,0,0.11-0.01,0.24-0.06c0.15-0.06,0.24-0.09,0.28-0.09
				c0.31-0.02,0.61-0.02,0.93-0.02c0.48,0.02,0.72,0.13,0.72,0.35c0,0.25-0.23,0.37-0.65,0.37h-0.42c-0.29,0-0.53-0.03-0.73-0.11
				c-0.08-0.05-0.21-0.12-0.34-0.2c-0.06,0-0.09,0.03-0.13,0.07c-0.06,0.06-0.1,0.08-0.12,0.08c-0.13,0.01-0.3,0.04-0.51,0.08
				c-0.06,0.03-0.14,0.11-0.24,0.21c-0.11,0.11-0.15,0.2-0.15,0.27c0,0.08,0.07,0.17,0.23,0.28c0.14,0.11,0.25,0.16,0.33,0.16
				c0.02,0,0.04,0,0.09-0.01c0.06,0,0.08-0.01,0.1-0.01c0.03,0.01,0.07,0.04,0.16,0.09c0.08,0.06,0.15,0.08,0.23,0.08
				c0.05,0,0.11-0.02,0.19-0.08c0.05-0.05,0.1-0.08,0.13-0.09c0.13-0.03,0.44-0.04,0.92-0.04c0.62,0,0.94,0.13,0.94,0.4
				c0,0.2-0.18,0.31-0.52,0.33l-0.7-0.11c-0.07,0.03-0.13,0.04-0.2,0.04c-0.13,0-0.35-0.08-0.65-0.24c-0.1,0-0.2,0.04-0.28,0.11
				c-0.07,0.08-0.15,0.12-0.17,0.12c-0.15,0.03-0.29,0.04-0.43,0.06c-0.2,0.06-0.29,0.2-0.29,0.41c0,0.21,0.2,0.41,0.6,0.57
				c0.33,0.14,0.6,0.21,0.8,0.21l1.46-0.01l1.4-0.14c0.17,0,0.26,0.1,0.26,0.27C41.72,27.04,41.63,27.2,41.47,27.33z"/>
			<path class="st0" d="M62.86,25.86c0,0,0.09-0.46,0.06-0.67c0,0,0.96-0.94,0.65-3.77c0,0,0.98,2.23,1.41,3.64
				C64.99,25.07,63.91,24.48,62.86,25.86z"/>
			<g>
				<g>
					<path class="st0" d="M28.33,26.63h-5.48l-3.88,3.91v5.53l3.88,3.92h5.48l3.88-3.92v-5.53L28.33,26.63z M30.07,32.46
						c0.06,0.07,0.09,0.16,0.09,0.24c0,0.19-0.15,0.3-0.45,0.32c-0.12,0.01-0.29,0.01-0.51,0c-0.26-0.01-0.36-0.02-0.32-0.02
						c-0.31,0-0.52,0.05-0.61,0.14c-0.03,0.05-0.07,0.15-0.1,0.3c-0.02,0.17-0.03,0.32-0.01,0.44c0.05,0.32,0.08,0.49,0.08,0.5
						c0.04,0.17,0.16,0.25,0.33,0.25h0.94c0.14,0,0.26,0.05,0.35,0.11c0.09,0.09,0.16,0.17,0.16,0.25c0,0.22-0.2,0.32-0.6,0.32
						c0,0-0.06,0-0.17-0.01h-0.61c-0.38-0.02-0.68-0.05-0.89-0.05c-0.06,0-0.17,0.02-0.33,0.04c-0.17,0.02-0.27,0.02-0.29,0.01
						c-0.14,0.01-0.28-0.01-0.41-0.06c-0.14-0.04-0.2-0.08-0.2-0.08c-0.08,0.06-0.23,0.13-0.44,0.23c0,0-0.12,0-0.33,0
						c-0.24,0-0.36-0.08-0.36-0.28c0-0.09,0.04-0.18,0.11-0.26c0.07-0.08,0.17-0.13,0.27-0.13c0.17,0,0.31,0.01,0.4,0.04
						c0.08,0.02,0.16,0.07,0.2,0.14c0.05,0.07,0.07,0.09,0.09,0.09c0.03,0,0.07-0.02,0.12-0.08c0.05-0.05,0.09-0.08,0.13-0.11
						c0.12,0,0.29-0.03,0.53-0.1c0.16-0.1,0.28-0.35,0.32-0.76c0.02-0.33-0.03-0.57-0.16-0.74c-0.13-0.17-0.32-0.25-0.58-0.25
						c-0.03,0-0.08-0.02-0.15-0.07c-0.07-0.05-0.12-0.08-0.16-0.08c-0.04,0-0.06,0.01-0.08,0.03c-0.09,0.07-0.2,0.14-0.36,0.21
						c-0.05,0.01-0.14,0.01-0.26,0.01c-0.09,0-0.16-0.03-0.24-0.1c-0.07-0.06-0.1-0.13-0.1-0.22c0-0.11,0.05-0.2,0.13-0.29
						c0.08-0.07,0.18-0.12,0.28-0.12c0.12,0,0.24,0.05,0.36,0.13c0.12,0.1,0.18,0.14,0.21,0.14c0.04,0,0.1-0.04,0.18-0.11
						c0.07-0.07,0.13-0.11,0.18-0.12c0.12-0.02,0.21-0.02,0.27-0.05c0.1-0.02,0.19-0.06,0.26-0.13c0.07-0.06,0.12-0.25,0.12-0.56
						c0-0.26-0.15-0.43-0.44-0.5c0,0-0.18,0-0.53,0c0,0-0.05,0.01-0.15,0.04c-0.09,0.02-0.16,0.02-0.22,0.02
						c-0.19,0-0.32-0.04-0.42-0.13c-0.1-0.08-0.14-0.18-0.14-0.27c0-0.17,0.2-0.24,0.61-0.21c0.4,0.02,0.77-0.01,1.12-0.11
						c0.24-0.07,0.49-0.16,0.74-0.24c0.13,0,0.31-0.03,0.56-0.11c0.05-0.02,0.09-0.1,0.15-0.19c0.07-0.14,0.11-0.2,0.12-0.22
						c0.07-0.15,0.16-0.22,0.27-0.22c0.08,0,0.17,0.06,0.28,0.15c0.11,0.11,0.16,0.21,0.16,0.29c0,0.09-0.13,0.19-0.36,0.28
						c-0.18,0.06-0.35,0.13-0.51,0.19c-0.05,0.02-0.12,0.09-0.19,0.2c-0.07,0.11-0.13,0.18-0.18,0.2c-0.09,0.08-0.14,0.17-0.15,0.32
						c-0.01,0.14-0.02,0.29-0.02,0.41c-0.02,0.27,0,0.45,0.06,0.56c0.04,0.09,0.11,0.14,0.25,0.19c0.17,0.07,0.65,0.09,1.43,0.09
						C29.95,32.35,30,32.39,30.07,32.46z M21.99,33.77c0.03,0.18,0.03,0.29,0.03,0.31c-0.08,0.9-0.3,1.67-0.64,2.3
						c-0.25,0.45-0.52,0.66-0.79,0.66c-0.12,0-0.21-0.06-0.29-0.17c-0.1-0.1-0.13-0.2-0.13-0.31c0-0.33,0.17-0.77,0.5-1.29
						c0.38-0.58,0.6-1.01,0.66-1.27c0.08-0.43,0.11-0.92,0.08-1.5c-0.01-0.18,0.01-0.39,0.07-0.65c0.05-0.19,0.08-0.32,0.12-0.37
						c0.09-0.16,0.15-0.24,0.15-0.25c0-0.02-0.01-0.04-0.02-0.06c-0.05-0.06-0.1-0.19-0.14-0.38c-0.05-0.16-0.06-0.25-0.06-0.3v-0.5
						c0-0.25-0.03-0.43-0.11-0.53c-0.07-0.1-0.09-0.2-0.09-0.3c0-0.07,0.03-0.18,0.12-0.31c0.07-0.12,0.16-0.2,0.25-0.2
						c0.28,0,0.56,0.04,0.82,0.09c0.26,0.05,0.37,0.07,0.35,0.07c0.02,0,0.05-0.01,0.08-0.03c0.04-0.02,0.08-0.05,0.14-0.06
						c0.08-0.01,0.2-0.03,0.36-0.08c0.2-0.05,0.62-0.08,1.25-0.11c0.42-0.02,0.63-0.09,0.65-0.22c0-0.02-0.01-0.11-0.04-0.24
						c-0.04-0.13-0.05-0.23-0.05-0.3c0-0.29,0.13-0.43,0.42-0.43c0.23,0,0.39,0.12,0.46,0.35v0.39c-0.01,0.17,0.01,0.28,0.08,0.35
						c0.07,0.07,0.17,0.09,0.3,0.09l0.97-0.02c0,0,0.44,0,1.33,0c0.01,0,0.06,0,0.16-0.01c0.09,0,0.14-0.01,0.15-0.01
						c0.19,0,0.34,0.04,0.46,0.12c0.12,0.09,0.17,0.18,0.17,0.28c0,0.26-0.19,0.36-0.57,0.31l-0.97-0.11c-0.02,0-0.2,0.01-0.55,0.01
						c-0.34,0.01-0.53,0.01-0.54,0.01c-0.45,0-0.68,0-0.68,0c-0.01,0-0.12,0.02-0.31,0.02h-0.31l-0.55-0.02l-1.01,0.06
						c-0.18,0.04-0.44,0.07-0.75,0.1c-0.19,0.01-0.41-0.05-0.66-0.19c-0.02,0-0.07,0.05-0.13,0.12c-0.07,0.07-0.12,0.12-0.16,0.13
						c-0.21,0.1-0.33,0.22-0.37,0.39c-0.02,0.07-0.04,0.23-0.01,0.47c0,0-0.03,0.08-0.09,0.23c0,0.05,0.01,0.11,0.01,0.19
						c-0.02,0.11-0.06,0.2-0.1,0.28c-0.03,0.05-0.07,0.11-0.08,0.16c-0.04,0.07-0.05,0.14-0.05,0.21c0.01,0.02,0.03,0.08,0.06,0.16
						c0.08,0.5,0.11,0.82,0.11,0.91c-0.01,0.27-0.01,0.41-0.01,0.41c0,0.07-0.02,0.18-0.05,0.3c-0.02,0.13-0.03,0.23-0.03,0.28
						C21.95,33.43,21.97,33.58,21.99,33.77z M30.2,37.31c-0.12,0.12-0.25,0.18-0.39,0.19c-0.06,0-0.38-0.06-0.97-0.17
						c-0.59-0.1-0.96-0.18-1.11-0.22c-0.24-0.05-0.44-0.15-0.58-0.29c-0.09-0.09-0.18-0.13-0.27-0.11c-0.04,0-0.09,0.02-0.16,0.05
						c-0.07,0.04-0.18,0.05-0.35,0.05c-0.24,0-0.62-0.13-1.15-0.38c-0.55-0.26-0.84-0.44-0.91-0.55c-0.1-0.07-0.2-0.11-0.28-0.11
						c-0.04,0-0.08,0.03-0.11,0.05c-0.15,0.22-0.37,0.45-0.63,0.66c-0.33,0.28-0.64,0.43-0.91,0.49c-0.1,0.01-0.18-0.01-0.24-0.08
						c-0.05-0.07-0.08-0.14-0.08-0.24c0-0.17,0.04-0.29,0.13-0.37c0.24-0.12,0.49-0.26,0.73-0.38c0.38-0.2,0.58-0.43,0.58-0.67
						c0-0.12-0.11-0.25-0.31-0.41c-0.37-0.26-0.54-0.46-0.54-0.59c0-0.15,0.13-0.25,0.41-0.32c0.11-0.03,0.25,0.07,0.42,0.31
						c0.17,0.24,0.29,0.35,0.38,0.35c0.25,0,0.45-0.22,0.59-0.67c0.03-0.04,0.1-0.1,0.24-0.19c-0.01-0.06-0.01-0.17,0.01-0.34
						c0.06-0.29-0.03-0.48-0.26-0.57c-0.09-0.04-0.21-0.06-0.36-0.06c-0.1,0-0.2,0.03-0.32,0.1c-0.11,0.07-0.2,0.1-0.25,0.1
						c-0.31,0-0.47-0.1-0.47-0.31c0-0.05,0.05-0.12,0.15-0.24c0.27-0.22,0.59-0.52,0.94-0.9c0.12-0.24,0.2-0.42,0.2-0.52
						c-0.02-0.15-0.15-0.24-0.4-0.28c-0.15,0-0.32,0.05-0.48,0.15c-0.17,0.09-0.28,0.14-0.3,0.13c-0.25-0.06-0.37-0.23-0.37-0.51
						c0-0.1,0.04-0.17,0.13-0.24c0.09-0.06,0.19-0.1,0.29-0.1h0.96c0.22,0.01,0.35,0.01,0.42,0.01c0.21,0,0.38,0.07,0.52,0.21
						c0.13,0.14,0.2,0.3,0.2,0.48c0,0.05-0.01,0.08-0.01,0.12c-0.02,0.12-0.09,0.2-0.19,0.26c-0.19,0.13-0.28,0.19-0.28,0.19
						c-0.04,0.04-0.15,0.16-0.31,0.36c-0.18,0.2-0.26,0.31-0.26,0.32c0,0.1,0.09,0.14,0.28,0.16c0.26,0.03,0.45,0.07,0.55,0.12
						c0.19,0.11,0.28,0.31,0.28,0.6c0,0.16-0.1,0.31-0.26,0.47c-0.18,0.17-0.27,0.29-0.27,0.36c0-0.01,0,0.03,0.02,0.12v0.18
						c-0.09,0.38-0.24,0.71-0.45,0.99c-0.03,0.03-0.03,0.04-0.03,0.06c0,0.12,0.2,0.29,0.62,0.5c0.21,0.12,0.55,0.27,1.01,0.44
						c0.1,0.04,0.24,0.08,0.44,0.15c0.19,0.04,0.32,0.11,0.42,0.23c0.05,0.07,0.08,0.09,0.12,0.09c0,0,0.04-0.01,0.1-0.05
						c0.06-0.03,0.13-0.06,0.2-0.06c0.41,0.08,0.8,0.13,1.18,0.15c0,0,0.34,0,1.04,0c0.59,0,0.9,0.11,0.9,0.33
						C30.38,37.05,30.32,37.19,30.2,37.31z"/>
				</g>
			</g>
		</g>
		<g>
			<g>
				<g>
					<g>
						<rect x="90.34" y="33.11" class="st0" width="0.6" height="12.39"/>
					</g>
				</g>
				<g>
					<g>
						<rect x="109.29" y="33.11" class="st0" width="0.6" height="12.39"/>
					</g>
				</g>
				<g>
					<g>
						<rect x="124.2" y="33.11" class="st0" width="0.6" height="12.39"/>
					</g>
				</g>
				<g>
					<path class="st0" d="M79.46,37.09c0.59-0.16,1.01-0.25,1.25-0.25c0.24,0,0.42,0.03,0.53,0.1c0.11,0.06,0.17,0.12,0.17,0.18
						c0,0.11-0.18,0.18-0.54,0.23c-0.94,0.11-1.81,0.24-2.62,0.41c-0.81,0.17-1.36,0.31-1.64,0.43c-0.28,0.12-0.5,0.18-0.66,0.18
						c-0.16,0-0.37-0.08-0.63-0.24c-0.26-0.16-0.39-0.29-0.39-0.38c0-0.09,0.11-0.14,0.33-0.14l0.26,0.02
						c0.36,0,0.93-0.05,1.72-0.17c0.79-0.11,1.4-0.21,1.85-0.31c0.3-0.89,0.45-1.41,0.45-1.57c0-0.16-0.01-0.28-0.03-0.36
						c-1.12,0.23-1.85,0.35-2.21,0.35c-0.36,0-0.62-0.02-0.8-0.07c-0.18-0.05-0.26-0.1-0.26-0.15c0-0.06,0.08-0.09,0.25-0.11
						c0.82-0.1,1.62-0.26,2.41-0.48c0.79-0.22,1.27-0.32,1.47-0.32c0.19,0,0.34,0.03,0.44,0.1c0.1,0.07,0.15,0.15,0.15,0.24
						c0,0.09-0.11,0.16-0.34,0.2c-0.22,0.04-0.46,0.1-0.72,0.17c0.34,0.21,0.52,0.38,0.52,0.53c0,0.07-0.04,0.16-0.13,0.24
						C79.94,36.19,79.67,36.58,79.46,37.09z M77.53,40.22c0.46-0.14,0.79-0.22,0.99-0.22c0.19,0,0.34,0.04,0.45,0.12
						c0.11,0.08,0.16,0.14,0.16,0.19c0,0.04-0.01,0.08-0.05,0.1c-0.03,0.02-0.18,0.06-0.44,0.11c-0.26,0.06-0.48,0.09-0.65,0.09
						c-0.16,0-0.32-0.02-0.46-0.05c-0.01,0.25-0.03,0.56-0.07,0.94c0.54-0.16,0.89-0.24,1.04-0.24c0.15,0,0.28,0.03,0.37,0.08
						c0.09,0.05,0.14,0.11,0.14,0.16c0,0.06-0.05,0.1-0.15,0.13c-0.09,0.03-0.29,0.07-0.57,0.14c-0.29,0.06-0.57,0.08-0.85,0.06
						c-0.21,1.63-0.44,2.44-0.68,2.44c-0.08,0-0.16-0.08-0.23-0.23c-0.08-0.15-0.11-0.34-0.11-0.55c0-0.32,0.06-0.59,0.19-0.83
						c0.13-0.24,0.23-0.58,0.29-1.03c0.06-0.45,0.1-0.94,0.1-1.46c0-0.52-0.03-0.86-0.11-1.03c-0.07-0.16-0.11-0.29-0.11-0.39
						c0-0.09,0.05-0.15,0.16-0.15c0.1,0,0.26,0.05,0.46,0.16c0.88-0.12,1.48-0.27,1.78-0.43c0.08-0.05,0.19-0.07,0.32-0.07
						c0.12,0,0.29,0.08,0.52,0.24c0.23,0.16,0.34,0.3,0.34,0.4c0,0.11-0.03,0.23-0.1,0.35c-0.12,0.19-0.19,0.75-0.19,1.67
						c0,0.53,0.02,1.01,0.05,1.44c0.03,0.43,0.05,0.72,0.05,0.86c0,0.48-0.08,0.86-0.23,1.13c-0.16,0.28-0.28,0.41-0.38,0.41
						c-0.1,0-0.18-0.06-0.23-0.17c-0.19-0.3-0.52-0.63-1-1.01c-0.07-0.05-0.11-0.1-0.11-0.15c0-0.06,0.03-0.09,0.08-0.09
						c0.05,0,0.16,0.02,0.32,0.07c0.16,0.04,0.32,0.06,0.47,0.06c0.15,0,0.25-0.04,0.29-0.13c0.05-0.09,0.09-0.38,0.11-0.87
						c0.02-0.48,0.03-0.94,0.03-1.36c0-0.42-0.01-0.84-0.03-1.26c-0.02-0.42-0.05-0.67-0.09-0.77c-0.03-0.1-0.09-0.15-0.17-0.15
						c-0.08,0-0.31,0.02-0.7,0.05c-0.39,0.04-0.71,0.09-0.98,0.18V40.22z M78.23,36.63c0,0.11-0.03,0.22-0.08,0.35
						c-0.06,0.13-0.13,0.19-0.2,0.19c-0.13,0-0.25-0.13-0.36-0.38c-0.12-0.25-0.18-0.54-0.18-0.86c0-0.12,0.02-0.17,0.08-0.17
						c0.05,0,0.19,0.09,0.41,0.27C78.12,36.22,78.23,36.42,78.23,36.63z M78.42,32.82c0.38,0,0.68,0.08,0.92,0.25
						c0.23,0.16,0.34,0.36,0.34,0.6c0,0.24-0.09,0.36-0.26,0.36c-0.18,0-0.47-0.16-0.89-0.49c-0.42-0.32-0.63-0.53-0.63-0.6
						C77.89,32.86,78.06,32.82,78.42,32.82z M82.36,39.56c-0.02,0.24-0.04,0.55-0.05,0.93c0.51-0.09,0.98-0.2,1.4-0.33
						c0.42-0.13,0.71-0.2,0.86-0.2c0.15,0,0.27,0.03,0.36,0.1c0.09,0.07,0.13,0.13,0.13,0.19c0,0.06-0.05,0.11-0.15,0.15
						c-0.1,0.04-0.38,0.13-0.83,0.25c-0.46,0.12-0.82,0.18-1.1,0.18c-0.28,0-0.5-0.02-0.69-0.06c-0.01,0.22-0.02,0.53-0.02,0.92
						c0.42-0.06,0.92-0.17,1.48-0.3c0.47-0.13,0.77-0.19,0.93-0.19c0.16,0,0.29,0.05,0.39,0.14c0.11,0.09,0.16,0.16,0.16,0.21
						c0,0.05-0.05,0.1-0.15,0.14c-0.1,0.05-0.39,0.12-0.87,0.2c-0.48,0.09-0.88,0.13-1.2,0.13c-0.32,0-0.56-0.01-0.72-0.04
						c0.07,0.83,0.32,1.32,0.78,1.46c0.45,0.14,0.88,0.21,1.28,0.21c0.4,0,0.79-0.04,1.16-0.13c0.37-0.09,0.65-0.22,0.83-0.41
						c0.18-0.19,0.35-0.72,0.51-1.59c0.03-0.17,0.07-0.25,0.12-0.25c0.05,0,0.08,0.14,0.09,0.42c0.01,0.28,0.04,0.51,0.09,0.71
						c0.05,0.19,0.13,0.41,0.24,0.66c0.11,0.25,0.16,0.4,0.16,0.43c0,0.17-0.26,0.37-0.79,0.59c-0.53,0.22-1.21,0.33-2.04,0.33
						c-0.71,0-1.31-0.1-1.81-0.3c-0.5-0.2-0.83-0.5-1-0.91c-0.17-0.41-0.25-1.04-0.25-1.88l0.07-2.28c0-0.49-0.05-0.88-0.14-1.17
						c-0.02-0.07-0.03-0.16-0.03-0.23c0-0.08,0.06-0.13,0.17-0.13c0.11,0,0.33,0.13,0.64,0.38c0.49-0.04,1.05-0.18,1.69-0.42
						c0.09-0.03,0.2-0.06,0.34-0.1c0.13-0.51,0.2-0.88,0.2-1.1c0-0.1-0.06-0.16-0.19-0.16c-0.13,0-0.35,0.04-0.68,0.11
						c-0.33,0.08-0.58,0.18-0.75,0.31c-0.15,0.14-0.26,0.2-0.34,0.2c-0.09,0-0.2-0.07-0.34-0.22c-0.14-0.14-0.21-0.25-0.21-0.32
						c0-0.07,0.04-0.14,0.13-0.2c0.24-0.2,0.36-0.78,0.36-1.73c0-0.23-0.02-0.42-0.06-0.58c-0.04-0.15-0.12-0.31-0.24-0.46
						c-0.12-0.15-0.18-0.27-0.18-0.34c0-0.07,0.07-0.11,0.21-0.11c0.14,0,0.35,0.06,0.64,0.16c0.29,0.11,0.44,0.26,0.44,0.44
						c0,0.07-0.02,0.15-0.07,0.25c-0.04,0.1-0.07,0.22-0.08,0.37c0.48-0.06,0.93-0.17,1.33-0.33c0.4-0.16,0.74-0.24,1.02-0.24
						c0.28,0,0.48,0.04,0.58,0.11c0.11,0.07,0.16,0.14,0.16,0.2c0,0.06-0.04,0.12-0.13,0.17c-0.09,0.05-0.45,0.15-1.08,0.28
						c-0.63,0.14-1.08,0.2-1.35,0.2c-0.27,0-0.47-0.01-0.59-0.04l-0.07,1.24c-0.01,0.23,0.02,0.35,0.1,0.35l0.47-0.11
						c0.31-0.08,0.59-0.21,0.82-0.39c0.09-0.09,0.21-0.13,0.35-0.13c0.14,0,0.34,0.08,0.61,0.25c0.27,0.16,0.41,0.3,0.41,0.39
						c0,0.09-0.06,0.19-0.19,0.29c-0.25,0.23-0.45,0.58-0.63,1.06c0.24,0.04,0.36,0.13,0.36,0.26c0,0.13-0.16,0.23-0.47,0.28
						c-0.31,0.05-1.15,0.22-2.5,0.5c-0.05,0.43-0.08,0.75-0.09,0.95c0.51-0.09,0.96-0.21,1.36-0.34c0.4-0.13,0.67-0.2,0.81-0.2
						c0.14,0,0.26,0.04,0.35,0.13c0.09,0.09,0.14,0.16,0.14,0.21c0,0.06-0.05,0.11-0.16,0.16c-0.1,0.06-0.4,0.12-0.88,0.21
						c-0.48,0.08-0.83,0.12-1.06,0.12C82.72,39.6,82.52,39.59,82.36,39.56z"/>
				</g>
				<g>
					<path class="st0" d="M97.09,35.23c0.82-0.04,1.71-0.17,2.67-0.39c0.97-0.22,1.7-0.4,2.21-0.53c0.51-0.13,0.9-0.2,1.17-0.2
						c0.27,0,0.48,0.03,0.63,0.1c0.16,0.07,0.23,0.15,0.23,0.24c0,0.09-0.11,0.18-0.32,0.26c-0.21,0.08-1.08,0.26-2.59,0.53
						c-1.51,0.28-2.47,0.41-2.88,0.41c-0.41,0-0.72-0.03-0.95-0.1c-0.02,0.39-0.14,1.15-0.35,2.3c-0.22,1.15-0.52,2.22-0.91,3.22
						c-0.39,1-0.75,1.7-1.07,2.13c-0.32,0.42-0.63,0.74-0.92,0.94c-0.29,0.2-0.46,0.3-0.51,0.3c-0.04,0-0.07-0.01-0.07-0.03
						c0-0.06,0.09-0.19,0.26-0.4c0.41-0.49,0.83-1.19,1.26-2.1c0.43-0.91,0.76-1.96,1.01-3.13c0.24-1.17,0.37-1.98,0.37-2.43
						c0-0.45-0.04-0.75-0.12-0.92c-0.08-0.16-0.11-0.29-0.11-0.38c0-0.09,0.07-0.14,0.21-0.14C96.44,34.92,96.7,35.02,97.09,35.23z
						 M98.87,41.43c1.52,0.85,2.69,1.39,3.49,1.64c0.81,0.25,2.04,0.45,3.69,0.6c0.39,0.04,0.58,0.09,0.58,0.15
						c0,0.06-0.07,0.12-0.21,0.17c-0.14,0.05-0.57,0.15-1.3,0.32c-0.73,0.16-1.23,0.25-1.52,0.25c-0.29,0-0.55-0.05-0.79-0.17
						c-0.23-0.11-0.64-0.34-1.23-0.68c-0.58-0.34-1.56-0.95-2.92-1.82c-0.33,0.6-0.78,1.09-1.32,1.48c-0.55,0.4-0.95,0.59-1.21,0.59
						c-0.08,0-0.11-0.02-0.11-0.08c0-0.05,0.08-0.13,0.23-0.24c0.74-0.52,1.37-1.22,1.89-2.09c-0.41-0.22-0.76-0.34-1.05-0.35
						c-0.3-0.01-0.45-0.08-0.45-0.2c0-0.08,0.06-0.14,0.18-0.2c0.12-0.06,0.27-0.09,0.45-0.09c0.18,0,0.53,0.14,1.06,0.42
						c0.28-0.7,0.41-1.16,0.41-1.37c0-0.09-0.04-0.13-0.12-0.13c-0.08,0-0.2,0.02-0.34,0.07c-0.15,0.05-0.25,0.07-0.3,0.07
						c-0.05,0-0.11-0.04-0.18-0.1c-0.07-0.07-0.1-0.14-0.1-0.22c0-0.08,0.05-0.15,0.14-0.23c0.09-0.08,0.18-0.17,0.25-0.29
						c0.07-0.12,0.16-0.34,0.28-0.67c0.12-0.33,0.19-0.52,0.19-0.57c0-0.05-0.01-0.08-0.04-0.08c-0.03,0-0.07,0.01-0.13,0.03
						c-0.27,0.1-0.54,0.14-0.82,0.14c-0.09,0-0.18-0.02-0.25-0.07c-0.07-0.05-0.11-0.1-0.11-0.14c0-0.09,0.09-0.15,0.29-0.17
						c0.43-0.06,0.82-0.22,1.15-0.5c0.14-0.12,0.29-0.19,0.42-0.19c0.14,0,0.3,0.06,0.5,0.19c0.19,0.12,0.29,0.23,0.29,0.32
						c0,0.08-0.06,0.17-0.18,0.27c-0.12,0.09-0.34,0.37-0.67,0.83c-0.33,0.46-0.49,0.73-0.49,0.82c0,0.03,0.02,0.04,0.07,0.04
						c0.05,0,0.16-0.04,0.34-0.13c0.05-0.02,0.11-0.03,0.18-0.03c0.07,0,0.2,0.09,0.38,0.25c0.18,0.16,0.27,0.29,0.27,0.38
						c0,0.09-0.04,0.17-0.14,0.25c-0.09,0.08-0.17,0.18-0.23,0.31C99.33,40.32,99.15,40.73,98.87,41.43z M102.27,38.71
						c0.56-0.14,0.91-0.22,1.05-0.22c0.13,0,0.25,0.04,0.37,0.11c0.12,0.08,0.17,0.14,0.17,0.2c0,0.11-0.16,0.19-0.49,0.27
						c-0.33,0.07-0.7,0.13-1.11,0.18l-0.04,1.5c0.42-0.05,0.84-0.13,1.26-0.24c0.19-0.05,0.38-0.07,0.58-0.07
						c0.2,0,0.37,0.07,0.54,0.22c0.16,0.15,0.25,0.26,0.25,0.36c0,0.13-0.14,0.2-0.43,0.2l-0.72-0.01c-0.49,0-1,0.02-1.54,0.08
						c-0.55,0.06-0.96,0.12-1.24,0.2c-0.28,0.08-0.51,0.12-0.67,0.12c-0.17,0-0.33-0.05-0.5-0.17c-0.16-0.11-0.24-0.19-0.24-0.25
						c0-0.05,0.07-0.08,0.22-0.09c0.78-0.04,1.39-0.1,1.8-0.19l0.05-1.56c-0.36,0.11-0.61,0.16-0.78,0.16
						c-0.17,0-0.33-0.03-0.49-0.1c-0.16-0.07-0.23-0.13-0.23-0.17c0-0.05,0.06-0.08,0.19-0.1c0.36-0.05,0.8-0.13,1.33-0.24
						c0.02-0.61-0.03-1.08-0.14-1.43c-0.15,0.06-0.33,0.1-0.53,0.14c-0.2,0.04-0.34,0.06-0.41,0.06c-0.08,0-0.12-0.02-0.12-0.06
						c0-0.07,0.17-0.19,0.51-0.37c0.34-0.19,0.68-0.41,1.02-0.66c0.34-0.26,0.52-0.45,0.54-0.57c0.02-0.12,0.1-0.18,0.25-0.18
						c0.14,0,0.36,0.09,0.63,0.27c0.27,0.18,0.41,0.31,0.41,0.38c0,0.08-0.13,0.15-0.38,0.23c-0.3,0.08-0.76,0.25-1.4,0.54
						c0.15,0.08,0.26,0.17,0.33,0.26c0.07,0.09,0.08,0.22,0.06,0.38C102.32,38.03,102.29,38.31,102.27,38.71z M99.86,32.57
						c0.58,0,0.99,0.11,1.23,0.34c0.24,0.22,0.37,0.48,0.37,0.75c0,0.15-0.04,0.26-0.11,0.35c-0.07,0.09-0.18,0.14-0.33,0.14
						c-0.15,0-0.43-0.21-0.85-0.62c-0.42-0.41-0.63-0.69-0.63-0.84C99.54,32.61,99.64,32.57,99.86,32.57z"/>
				</g>
				<g>
					<path class="st0" d="M116.41,33.54c0.39,0.02,0.87-0.04,1.43-0.18c0.56-0.14,1.1-0.32,1.61-0.56c0.14-0.07,0.28-0.1,0.4-0.1
						c0.12,0,0.4,0.1,0.84,0.32c0.44,0.21,0.66,0.41,0.66,0.6c0,0.09-0.06,0.21-0.19,0.37c-0.13,0.16-0.22,0.39-0.27,0.69
						c-0.06,0.3-0.09,0.76-0.09,1.37c0,1.18,0.03,2.4,0.09,3.68l0.13,2.74c0,0.34-0.05,0.73-0.16,1.15
						c-0.11,0.42-0.24,0.75-0.41,0.98c-0.17,0.24-0.3,0.35-0.41,0.35c-0.07,0-0.17-0.11-0.29-0.32c-0.12-0.21-0.3-0.47-0.54-0.79
						c-0.24-0.31-0.45-0.56-0.63-0.74c-0.18-0.18-0.28-0.29-0.28-0.32c0-0.04,0.04-0.06,0.09-0.06c0.06,0,0.23,0.04,0.49,0.11
						c0.27,0.07,0.48,0.11,0.64,0.11c0.15,0,0.26-0.05,0.31-0.16c0.05-0.11,0.09-0.42,0.12-0.93c0.03-0.52,0.04-1.39,0.04-2.62
						c0-1.24-0.03-2.4-0.09-3.47c-0.05-1.08-0.12-1.71-0.21-1.9c-0.08-0.19-0.23-0.29-0.45-0.29c-0.09,0-0.48,0.06-1.17,0.19
						c-0.69,0.13-1.21,0.2-1.55,0.21c0.01,0.76-0.01,1.6-0.06,2.51c0.08,0.01,0.16,0.02,0.24,0.02c0.23,0,0.56-0.07,1.01-0.22
						c0.27-0.12,0.52-0.17,0.73-0.17c0.22,0,0.39,0.03,0.52,0.1c0.13,0.07,0.19,0.14,0.19,0.22c0,0.08-0.04,0.15-0.13,0.19
						c-0.09,0.05-0.34,0.12-0.77,0.2c-0.43,0.09-0.77,0.13-1.04,0.13c-0.26,0-0.53-0.04-0.79-0.1c-0.05,0.76-0.13,1.47-0.25,2.13
						c0.07,0.02,0.14,0.03,0.22,0.03c0.2,0,0.57-0.08,1.12-0.25c0.54-0.16,0.88-0.24,1.01-0.24c0.12,0,0.26,0.03,0.4,0.08
						c0.14,0.06,0.21,0.13,0.21,0.22c0,0.15-0.25,0.3-0.74,0.44c-0.49,0.13-0.91,0.2-1.26,0.2c-0.34,0-0.68-0.04-1.03-0.13
						c-0.24,1.24-0.54,2.17-0.9,2.79c-0.36,0.62-0.84,1.12-1.43,1.49c-0.6,0.37-0.97,0.56-1.12,0.56c-0.06,0-0.09-0.02-0.09-0.06
						c0-0.09,0.13-0.23,0.39-0.45c1.06-0.87,1.77-2.04,2.14-3.49c0.37-1.46,0.55-2.96,0.55-4.49c0-0.93-0.12-1.55-0.36-1.86
						c-0.1-0.15-0.16-0.27-0.16-0.37c0-0.1,0.1-0.15,0.29-0.15C115.66,33.3,115.97,33.38,116.41,33.54z"/>
				</g>
				<g>
					<path class="st0" d="M131.43,33.58c0.71,0.03,1.15,0.14,1.34,0.32c0.19,0.19,0.28,0.4,0.28,0.63c0,0.23-0.08,0.35-0.23,0.35
						c-0.05,0-0.12-0.02-0.18-0.06c-0.06-0.04-0.22-0.15-0.47-0.31c-0.25-0.17-0.54-0.38-0.86-0.64c-0.18,0.41-0.42,0.92-0.73,1.51
						c0.48,0.02,0.83,0.08,1.04,0.17c0.21,0.1,0.31,0.28,0.31,0.55c0,0.17-0.07,0.26-0.22,0.26c-0.34,0-0.75-0.27-1.23-0.79
						c-0.28,0.55-0.62,1.1-1.01,1.66c0.21,0.02,0.38,0.05,0.5,0.09c0.94-0.19,1.56-0.38,1.87-0.57c0.16-0.1,0.29-0.15,0.38-0.15
						c0.09,0,0.28,0.09,0.57,0.25c0.28,0.17,0.43,0.29,0.43,0.37c0,0.07-0.04,0.16-0.14,0.25c-0.09,0.09-0.18,0.25-0.27,0.47
						c-0.09,0.22-0.15,0.46-0.19,0.71c-0.04,0.25-0.1,0.58-0.2,0.99c-0.09,0.41-0.17,0.65-0.23,0.72c-0.06,0.07-0.12,0.11-0.18,0.11
						c-0.06,0-0.13-0.03-0.19-0.08c-0.07-0.05-0.15-0.08-0.23-0.08c-0.16,0-0.65,0.12-1.49,0.35c-0.05,0.8-0.08,1.4-0.11,1.79
						c0.57-0.27,1.15-0.6,1.76-1.01c-0.23-0.37-0.34-0.56-0.34-0.6c0-0.04,0.01-0.06,0.04-0.06c0.11,0,0.34,0.09,0.72,0.27
						c0.38,0.18,0.56,0.43,0.56,0.74c0,0.09-0.02,0.2-0.07,0.33c-0.05,0.13-0.11,0.19-0.19,0.19c-0.08,0-0.15-0.02-0.19-0.08
						c-0.05-0.05-0.17-0.21-0.34-0.45c-0.46,0.33-0.89,0.68-1.29,1.05c-0.4,0.37-0.65,0.64-0.74,0.81c-0.09,0.17-0.19,0.26-0.3,0.26
						c-0.11,0-0.24-0.09-0.4-0.28c-0.16-0.18-0.24-0.32-0.24-0.42c0-0.09,0.05-0.2,0.14-0.33c0.09-0.12,0.17-0.31,0.22-0.54
						c0.05-0.24,0.1-0.66,0.16-1.28c0.05-0.61,0.08-1.25,0.08-1.89c0-1.07-0.09-1.63-0.29-1.66c-0.37,0.55-0.76,0.98-1.16,1.29
						c-0.4,0.31-0.66,0.47-0.77,0.47c-0.04,0-0.05-0.02-0.05-0.06c0-0.05,0.05-0.12,0.14-0.22c0.91-1.03,1.67-2.18,2.26-3.46
						c0.59-1.27,0.89-2.07,0.89-2.4c0-0.11-0.02-0.2-0.05-0.28c-0.03-0.08-0.05-0.15-0.05-0.21c0-0.12,0.07-0.19,0.22-0.19
						c0.14,0,0.35,0.08,0.63,0.22c0.28,0.15,0.41,0.28,0.41,0.4c0,0.12-0.05,0.22-0.15,0.33C131.49,33.48,131.44,33.54,131.43,33.58
						z M130.13,39.1c0,0.22-0.01,0.6-0.03,1.14c0.74-0.2,1.19-0.32,1.34-0.34c0.15-0.02,0.25-0.07,0.3-0.12
						c0.05-0.05,0.09-0.31,0.13-0.78c0.04-0.46,0.06-0.93,0.06-1.41c0-0.18-0.04-0.28-0.13-0.28c-0.09,0-0.18,0.02-0.28,0.06
						c-0.22,0.07-0.67,0.16-1.37,0.29l-0.03,1.14c0.51-0.19,0.83-0.29,0.97-0.29c0.14,0,0.26,0.03,0.36,0.09
						c0.09,0.06,0.14,0.11,0.14,0.16c0,0.05-0.08,0.09-0.24,0.14c-0.16,0.04-0.32,0.09-0.47,0.14c-0.15,0.05-0.28,0.08-0.4,0.08
						C130.37,39.13,130.25,39.12,130.13,39.1z M137.2,36.62c0.2,0.09,0.35,0.18,0.43,0.27c0.08,0.08,0.13,0.19,0.13,0.3
						c0,0.12-0.03,0.27-0.09,0.47c-0.06,0.2-0.07,0.46-0.04,0.77c0.34-0.06,0.68-0.13,1-0.23c0.32-0.09,0.59-0.14,0.81-0.14
						c0.21,0,0.4,0.08,0.57,0.22c0.16,0.15,0.24,0.28,0.24,0.4c0,0.11-0.24,0.17-0.71,0.17c-0.47,0-1.1,0.04-1.88,0.13
						c0.04,0.72,0.06,1.64,0.06,2.74c0,1.11-0.05,1.93-0.15,2.47c-0.1,0.54-0.22,0.81-0.35,0.81c-0.06,0-0.1-0.05-0.13-0.16
						c-0.04-0.11-0.06-0.57-0.08-1.37c-0.02-0.8-0.03-1.58-0.03-2.33c0-0.75,0-1.45,0.02-2.09c-0.43,0.05-1,0.13-1.72,0.25
						c-0.08,0.93-0.27,1.71-0.56,2.33c-0.29,0.62-0.67,1.14-1.15,1.56c-0.48,0.42-0.77,0.63-0.88,0.63c-0.04,0-0.06-0.03-0.06-0.09
						c0-0.06,0.06-0.16,0.19-0.3c0.5-0.58,0.89-1.14,1.14-1.69c0.26-0.55,0.46-1.32,0.61-2.31c-0.65,0.12-1.06,0.18-1.22,0.18
						c-0.17,0-0.33-0.04-0.48-0.14c-0.15-0.09-0.23-0.18-0.23-0.25c0-0.08,0.14-0.12,0.4-0.12c0.27,0,0.8-0.06,1.6-0.17
						c0.03-0.21,0.04-0.42,0.04-0.61c0-0.5-0.08-0.92-0.24-1.25c-0.11,0.01-0.23,0.01-0.35,0.01c-0.13,0-0.26-0.02-0.4-0.07
						c-0.14-0.04-0.21-0.1-0.21-0.17c0-0.06,0.08-0.1,0.22-0.11c0.85-0.09,2.08-0.37,3.66-0.86c0.33-0.11,0.59-0.16,0.78-0.16
						c0.19,0,0.36,0.04,0.5,0.12c0.14,0.08,0.21,0.16,0.21,0.22c0,0.15-0.27,0.28-0.81,0.39L137.2,36.62z M135.41,34.79
						c0,0.38-0.11,0.56-0.34,0.56c-0.08,0-0.18-0.06-0.3-0.17c-0.11-0.11-0.27-0.34-0.48-0.67c-0.21-0.34-0.31-0.54-0.31-0.61
						c0-0.07,0.04-0.1,0.12-0.1c0.08,0,0.27,0.06,0.58,0.17c0.3,0.12,0.5,0.22,0.59,0.32C135.37,34.4,135.41,34.56,135.41,34.79z
						 M136.99,38.55c0-0.77-0.08-1.38-0.26-1.85c-0.6,0.13-1.19,0.24-1.77,0.33c0.38,0.22,0.57,0.42,0.57,0.62
						c0,0.07-0.02,0.16-0.06,0.28c-0.07,0.14-0.12,0.44-0.17,0.9L136.99,38.55z M138.74,33.29c0,0.11-0.06,0.21-0.18,0.29
						c-0.13,0.08-0.32,0.26-0.6,0.56c-0.55,0.55-0.92,0.93-1.13,1.12c-0.21,0.19-0.36,0.28-0.41,0.28c-0.07,0-0.09-0.03-0.09-0.09
						c0-0.06,0.03-0.13,0.08-0.2c0.39-0.55,0.67-1.02,0.85-1.42c0.17-0.4,0.24-0.69,0.21-0.89c-0.02-0.08-0.03-0.14-0.03-0.2
						c0-0.16,0.07-0.24,0.21-0.24c0.14,0,0.35,0.09,0.65,0.27C138.59,32.95,138.74,33.12,138.74,33.29z"/>
				</g>
			</g>
			<g>
				<g>
					<path class="st0" d="M75.23,25.81c0.56-0.06,0.93-0.16,1.1-0.3c0.17-0.14,0.25-0.51,0.25-1.09v-6.89
						c0-0.55-0.08-0.91-0.25-1.08c-0.17-0.17-0.53-0.27-1.1-0.32v-0.29h4.33v0.29c-0.56,0.03-0.94,0.13-1.13,0.28
						c-0.19,0.16-0.29,0.49-0.29,1.01v7.44c0,0.17,0.03,0.31,0.08,0.41c0.06,0.1,0.19,0.16,0.38,0.19c0.11,0.01,0.24,0.02,0.36,0.03
						c0.12,0.01,0.37,0.01,0.71,0.01c1.36,0,2.29-0.11,2.77-0.34c0.48-0.23,0.95-0.81,1.39-1.74h0.39l-0.75,2.68h-8.25V25.81z"/>
					<path class="st0" d="M85.77,20.04C86.4,19.35,87.21,19,88.21,19c0.99,0,1.81,0.33,2.46,0.98c0.65,0.66,0.98,1.53,0.98,2.62
						c0,1-0.32,1.87-0.95,2.62c-0.63,0.74-1.44,1.11-2.44,1.11c-0.96,0-1.77-0.36-2.43-1.07c-0.66-0.71-1-1.6-1-2.68
						C84.82,21.58,85.14,20.73,85.77,20.04z M86.97,19.85c-0.5,0.46-0.75,1.25-0.75,2.37c0,0.89,0.2,1.73,0.6,2.51
						c0.4,0.78,0.96,1.17,1.68,1.17c0.56,0,0.99-0.26,1.3-0.78c0.3-0.52,0.45-1.2,0.45-2.04c0-0.87-0.19-1.7-0.58-2.47
						c-0.38-0.77-0.94-1.16-1.67-1.16C87.6,19.45,87.26,19.59,86.97,19.85z"/>
					<path class="st0" d="M92.38,25.88c0.35-0.05,0.6-0.14,0.75-0.27c0.14-0.13,0.21-0.43,0.21-0.9v-3.84
						c0-0.32-0.03-0.54-0.09-0.67c-0.1-0.19-0.29-0.29-0.59-0.29c-0.05,0-0.09,0-0.14,0.01c-0.05,0.01-0.1,0.01-0.18,0.02v-0.27
						c0.21-0.06,0.69-0.22,1.46-0.47l0.7-0.23c0.04,0,0.06,0.01,0.06,0.04c0.01,0.02,0.01,0.06,0.01,0.11v1.11
						c0.46-0.43,0.82-0.73,1.08-0.89c0.39-0.25,0.79-0.37,1.21-0.37c0.34,0,0.65,0.1,0.93,0.29c0.54,0.38,0.81,1.07,0.81,2.05v3.53
						c0,0.36,0.07,0.62,0.22,0.79c0.14,0.16,0.38,0.24,0.72,0.25v0.21h-3.2v-0.21c0.36-0.05,0.62-0.15,0.76-0.3
						c0.15-0.15,0.22-0.49,0.22-1v-3.23c0-0.43-0.08-0.79-0.24-1.08c-0.16-0.28-0.45-0.43-0.88-0.43c-0.29,0-0.59,0.1-0.89,0.3
						c-0.17,0.12-0.39,0.31-0.66,0.57v4.23c0,0.36,0.08,0.61,0.24,0.73c0.16,0.13,0.41,0.19,0.76,0.2v0.21h-3.27V25.88z"/>
					<path class="st0" d="M101.19,22.74c-0.25-0.39-0.38-0.83-0.38-1.31c0-0.59,0.23-1.15,0.7-1.68c0.46-0.53,1.12-0.79,1.97-0.79
						c0.36,0,0.77,0.08,1.21,0.26c0.44,0.18,0.86,0.26,1.26,0.26c0.11,0,0.26,0,0.48-0.01c0.21-0.01,0.37-0.01,0.46-0.01h0.09v0.61
						h-1.3c0.09,0.21,0.16,0.4,0.21,0.55c0.08,0.29,0.13,0.57,0.13,0.83c0,0.58-0.24,1.1-0.71,1.58c-0.47,0.48-1.11,0.72-1.91,0.72
						c-0.12,0-0.35-0.02-0.67-0.07c-0.14,0-0.34,0.13-0.58,0.37c-0.24,0.25-0.36,0.45-0.36,0.61c0,0.16,0.18,0.28,0.53,0.35
						c0.23,0.05,0.49,0.08,0.76,0.08c1.29,0,2.16,0.07,2.62,0.22c0.75,0.24,1.13,0.75,1.13,1.53c0,0.8-0.44,1.43-1.32,1.9
						c-0.89,0.48-1.77,0.71-2.67,0.71c-0.82,0-1.47-0.17-1.95-0.5c-0.48-0.33-0.72-0.69-0.72-1.05c0-0.18,0.06-0.36,0.19-0.53
						c0.12-0.17,0.37-0.43,0.75-0.77l0.49-0.45l0.09-0.09c-0.23-0.09-0.4-0.18-0.51-0.26c-0.2-0.16-0.3-0.34-0.3-0.54
						c0-0.19,0.09-0.39,0.26-0.61c0.17-0.23,0.54-0.59,1.1-1.1C101.8,23.4,101.45,23.13,101.19,22.74z M101.99,28.37
						c0.47,0.17,1.01,0.24,1.62,0.24c0.83,0,1.5-0.14,2.02-0.43c0.52-0.29,0.78-0.65,0.78-1.07c0-0.33-0.21-0.56-0.63-0.67
						c-0.26-0.06-0.75-0.11-1.48-0.11c-0.18-0.01-0.38-0.01-0.58-0.02c-0.21-0.01-0.39-0.02-0.56-0.03
						c-0.11-0.01-0.28-0.02-0.53-0.06c-0.25-0.04-0.43-0.07-0.55-0.09c-0.06,0-0.2,0.16-0.44,0.48c-0.24,0.32-0.36,0.62-0.36,0.89
						C101.28,27.91,101.51,28.21,101.99,28.37z M104.36,23.17c0.3-0.24,0.45-0.66,0.45-1.26c0-0.48-0.12-1.02-0.36-1.62
						c-0.24-0.6-0.65-0.9-1.21-0.9c-0.49,0-0.83,0.23-1.01,0.7c-0.09,0.25-0.14,0.56-0.14,0.92c0,0.62,0.15,1.17,0.44,1.66
						c0.29,0.49,0.67,0.73,1.15,0.73C103.95,23.4,104.18,23.32,104.36,23.17z"/>
				</g>
				<g>
					<path class="st0" d="M109.62,25.81c0.56-0.06,0.92-0.16,1.09-0.3c0.17-0.14,0.25-0.51,0.25-1.09v-3.19h-1.35v-0.68h1.35v-3.02
						c0-0.56-0.08-0.93-0.25-1.09c-0.17-0.16-0.54-0.26-1.1-0.31v-0.29h4.1c1.76,0,3.18,0.37,4.22,1.11
						c1.24,0.88,1.86,2.23,1.86,4.05c0,0.67-0.13,1.36-0.4,2.08c-0.26,0.72-0.75,1.34-1.45,1.88c-0.4,0.3-0.81,0.53-1.24,0.69
						c-0.78,0.29-1.73,0.44-2.87,0.44h-4.23V25.81z M112.7,25.4c0.12,0.08,0.37,0.12,0.75,0.12c1.18,0,2.15-0.24,2.92-0.72
						c1.17-0.74,1.76-1.99,1.76-3.77c0-1.59-0.48-2.79-1.45-3.59c-0.83-0.68-1.93-1.03-3.29-1.03c-0.34,0-0.57,0.04-0.69,0.11
						c-0.12,0.07-0.18,0.24-0.18,0.5v3.53h2.52v0.68h-2.52v3.67C112.52,25.15,112.58,25.32,112.7,25.4z"/>
					<path class="st0" d="M123.81,18.24h-0.62l-2.36-1.5c-0.16-0.1-0.28-0.21-0.35-0.31c-0.07-0.1-0.11-0.22-0.11-0.35
						c0-0.14,0.05-0.27,0.16-0.36c0.1-0.09,0.23-0.14,0.36-0.14c0.13,0,0.25,0.04,0.36,0.11c0.11,0.07,0.21,0.16,0.31,0.26
						L123.81,18.24z M120.76,25.88c0.53-0.05,0.87-0.14,1.01-0.28c0.14-0.13,0.21-0.5,0.21-1.09v-3.6c0-0.33-0.02-0.56-0.07-0.68
						c-0.08-0.2-0.23-0.31-0.47-0.31c-0.06,0-0.11,0.01-0.16,0.02c-0.05,0.01-0.2,0.05-0.45,0.12v-0.24l0.32-0.1
						c0.87-0.29,1.48-0.51,1.82-0.65c0.14-0.06,0.23-0.09,0.27-0.09c0.01,0.04,0.01,0.07,0.01,0.11v5.43c0,0.58,0.07,0.94,0.21,1.08
						c0.14,0.15,0.45,0.24,0.93,0.28v0.21h-3.64V25.88z"/>
					<path class="st0" d="M124.99,25.88c0.35-0.05,0.6-0.14,0.74-0.27c0.14-0.13,0.21-0.43,0.21-0.9v-3.84
						c0-0.32-0.03-0.54-0.09-0.67c-0.1-0.19-0.29-0.29-0.58-0.29c-0.05,0-0.09,0-0.14,0.01c-0.05,0.01-0.11,0.01-0.17,0.02v-0.27
						c0.2-0.06,0.69-0.22,1.45-0.47l0.7-0.23c0.04,0,0.06,0.01,0.06,0.04c0.01,0.02,0.01,0.06,0.01,0.11v1.11
						c0.46-0.43,0.82-0.73,1.08-0.89c0.39-0.25,0.79-0.37,1.21-0.37c0.34,0,0.65,0.1,0.93,0.29c0.54,0.38,0.81,1.07,0.81,2.05v3.53
						c0,0.36,0.07,0.62,0.21,0.79c0.14,0.16,0.39,0.24,0.72,0.25v0.21h-3.2v-0.21c0.36-0.05,0.62-0.15,0.77-0.3
						c0.14-0.15,0.22-0.49,0.22-1v-3.23c0-0.43-0.08-0.79-0.24-1.08c-0.16-0.28-0.45-0.43-0.88-0.43c-0.29,0-0.59,0.1-0.89,0.3
						c-0.17,0.12-0.39,0.31-0.65,0.57v4.23c0,0.36,0.08,0.61,0.24,0.73c0.16,0.13,0.41,0.19,0.76,0.2v0.21h-3.27V25.88z"/>
					<path class="st0" d="M132.52,25.88c0.41-0.05,0.68-0.16,0.81-0.3c0.13-0.15,0.19-0.5,0.19-1.06v-7.26
						c0-0.28-0.04-0.49-0.11-0.62c-0.07-0.13-0.25-0.2-0.53-0.2c-0.06,0-0.11,0-0.16,0.01c-0.05,0.01-0.11,0.02-0.17,0.03V16.2
						c0.22-0.06,0.49-0.14,0.81-0.24c0.32-0.09,0.55-0.16,0.67-0.2l0.72-0.23l0.01,0.05v4.64c0.32-0.36,0.6-0.63,0.84-0.8
						c0.44-0.3,0.91-0.45,1.42-0.45c0.81,0,1.36,0.34,1.66,1.03c0.16,0.36,0.24,0.84,0.24,1.43v3.08c0,0.54,0.06,0.88,0.18,1.05
						c0.13,0.16,0.38,0.27,0.75,0.32v0.21h-3.24v-0.21c0.44-0.06,0.71-0.16,0.84-0.31c0.13-0.15,0.19-0.5,0.19-1.05v-3.06
						c0-0.49-0.08-0.89-0.25-1.19c-0.16-0.3-0.47-0.45-0.92-0.45c-0.39,0-0.77,0.14-1.13,0.42c-0.36,0.28-0.55,0.47-0.55,0.55v3.73
						c0,0.57,0.07,0.92,0.19,1.06c0.13,0.14,0.41,0.24,0.83,0.3v0.21h-3.3V25.88z"/>
				</g>
				<path class="st0" d="M140.79,16.16c0.37-0.37,0.82-0.56,1.34-0.56c0.53,0,0.98,0.19,1.35,0.56c0.37,0.38,0.56,0.83,0.56,1.36
					c0,0.53-0.18,0.98-0.56,1.36c-0.37,0.37-0.82,0.56-1.35,0.56c-0.52,0-0.97-0.19-1.34-0.56c-0.37-0.37-0.55-0.83-0.55-1.36
					C140.23,16.99,140.42,16.54,140.79,16.16z M140.93,18.73c0.33,0.33,0.73,0.5,1.19,0.5c0.47,0,0.87-0.17,1.2-0.5
					c0.33-0.34,0.5-0.74,0.5-1.21c0-0.47-0.16-0.88-0.5-1.21c-0.33-0.34-0.73-0.5-1.2-0.5c-0.47,0-0.86,0.17-1.19,0.5
					c-0.33,0.33-0.5,0.73-0.5,1.21C140.44,17.99,140.6,18.4,140.93,18.73z M141.05,18.5c0.15,0,0.25-0.01,0.3-0.03
					c0.05-0.02,0.07-0.07,0.07-0.16v-1.63c0-0.08-0.02-0.13-0.08-0.15c-0.05-0.02-0.15-0.04-0.3-0.04v-0.13h1.09
					c0.28,0,0.5,0.05,0.67,0.15c0.17,0.1,0.26,0.24,0.26,0.42c0,0.15-0.07,0.27-0.2,0.37c-0.14,0.1-0.32,0.16-0.55,0.18v0.02
					c0.27,0.08,0.45,0.27,0.52,0.55c0.08,0.28,0.14,0.42,0.19,0.42c0.07,0,0.11-0.04,0.14-0.11c0.02-0.05,0.04-0.15,0.05-0.29h0.14
					c-0.01,0.16-0.04,0.28-0.08,0.36c-0.08,0.14-0.21,0.22-0.39,0.22c-0.17,0-0.29-0.06-0.35-0.17c-0.04-0.07-0.06-0.22-0.08-0.43
					c-0.01-0.22-0.06-0.36-0.15-0.43c-0.08-0.06-0.25-0.09-0.51-0.09v0.76c0,0.09,0.03,0.14,0.11,0.17
					c0.04,0.01,0.13,0.02,0.27,0.02v0.13h-1.12V18.5z M142.38,17.36c0.16-0.06,0.23-0.21,0.23-0.42c0-0.14-0.04-0.25-0.13-0.32
					c-0.08-0.08-0.21-0.12-0.39-0.12c-0.09,0-0.16,0.02-0.22,0.04c-0.05,0.02-0.08,0.08-0.08,0.15v0.73
					C142.09,17.42,142.29,17.4,142.38,17.36z"/>
			</g>
			<g>
				<path class="st0" d="M75.08,53.63c0.19-0.02,0.3-0.05,0.36-0.1c0.05-0.05,0.08-0.16,0.08-0.35v-2.25c0-0.18-0.03-0.29-0.08-0.35
					c-0.05-0.06-0.17-0.09-0.36-0.1v-0.09h1.41v0.09c-0.18,0.01-0.3,0.04-0.37,0.09c-0.06,0.05-0.09,0.16-0.09,0.33v2.42
					c0,0.06,0.01,0.1,0.03,0.13c0.02,0.03,0.06,0.05,0.12,0.06c0.03,0,0.07,0.01,0.12,0.01c0.04,0,0.12,0,0.23,0
					c0.44,0,0.75-0.04,0.9-0.11c0.16-0.07,0.31-0.26,0.46-0.57h0.13l-0.25,0.87h-2.69V53.63z"/>
				<path class="st0" d="M79.51,51.75c0.21-0.22,0.47-0.34,0.8-0.34c0.32,0,0.59,0.11,0.8,0.32c0.21,0.21,0.32,0.5,0.32,0.85
					c0,0.33-0.1,0.61-0.31,0.85c-0.2,0.24-0.47,0.36-0.8,0.36c-0.31,0-0.58-0.12-0.79-0.35c-0.21-0.23-0.32-0.52-0.32-0.87
					C79.2,52.25,79.3,51.98,79.51,51.75z M79.9,51.69c-0.16,0.15-0.24,0.41-0.24,0.77c0,0.29,0.06,0.56,0.2,0.82
					c0.13,0.25,0.31,0.38,0.55,0.38c0.18,0,0.32-0.08,0.42-0.25c0.1-0.17,0.15-0.39,0.15-0.67c0-0.28-0.07-0.55-0.19-0.8
					c-0.12-0.25-0.31-0.37-0.55-0.37C80.1,51.56,79.99,51.6,79.9,51.69z"/>
				<path class="st0" d="M82.66,53.65c0.11-0.01,0.19-0.05,0.24-0.09c0.05-0.04,0.07-0.14,0.07-0.29v-1.25
					c0-0.11-0.01-0.18-0.03-0.22c-0.03-0.06-0.09-0.09-0.19-0.09c-0.02,0-0.03,0-0.05,0c-0.02,0-0.03,0.01-0.05,0.01v-0.09
					c0.07-0.02,0.22-0.07,0.47-0.15l0.23-0.07c0.01,0,0.02,0,0.02,0.01c0,0.01,0,0.02,0,0.03v0.36c0.15-0.14,0.27-0.24,0.35-0.29
					c0.13-0.08,0.26-0.12,0.4-0.12c0.11,0,0.21,0.03,0.3,0.1c0.17,0.13,0.26,0.35,0.26,0.67v1.15c0,0.11,0.03,0.2,0.07,0.25
					c0.05,0.05,0.13,0.08,0.23,0.08v0.07h-1.04v-0.07c0.12-0.02,0.2-0.05,0.25-0.1c0.05-0.05,0.07-0.16,0.07-0.33v-1.05
					c0-0.14-0.03-0.26-0.08-0.35c-0.05-0.09-0.15-0.14-0.29-0.14c-0.1,0-0.19,0.03-0.29,0.1c-0.05,0.04-0.12,0.1-0.21,0.19v1.38
					c0,0.12,0.03,0.2,0.08,0.24c0.05,0.04,0.13,0.06,0.25,0.07v0.07h-1.06V53.65z"/>
				<path class="st0" d="M86.53,52.63c-0.08-0.12-0.12-0.27-0.12-0.43c0-0.19,0.08-0.37,0.23-0.55c0.15-0.17,0.36-0.26,0.64-0.26
					c0.12,0,0.25,0.03,0.4,0.09c0.14,0.05,0.28,0.08,0.41,0.08c0.03,0,0.09,0,0.15-0.01c0.07,0,0.12,0,0.15,0h0.03v0.2h-0.42
					c0.03,0.07,0.05,0.13,0.07,0.18c0.03,0.09,0.04,0.19,0.04,0.27c0,0.19-0.08,0.36-0.23,0.52c-0.15,0.15-0.36,0.23-0.62,0.23
					c-0.04,0-0.11-0.01-0.22-0.02c-0.05,0-0.11,0.04-0.19,0.12c-0.08,0.08-0.12,0.14-0.12,0.2c0,0.05,0.06,0.09,0.17,0.11
					c0.08,0.02,0.16,0.03,0.26,0.03c0.41,0,0.7,0.02,0.85,0.07c0.25,0.08,0.37,0.24,0.37,0.5c0,0.26-0.14,0.47-0.43,0.62
					c-0.29,0.16-0.58,0.23-0.87,0.23c-0.27,0-0.48-0.05-0.63-0.16c-0.16-0.11-0.24-0.22-0.24-0.34c0-0.06,0.03-0.12,0.06-0.17
					c0.04-0.06,0.12-0.14,0.25-0.25l0.16-0.14l0.03-0.03c-0.07-0.03-0.13-0.06-0.17-0.09c-0.06-0.05-0.09-0.11-0.09-0.17
					c0-0.06,0.03-0.13,0.08-0.2c0.06-0.07,0.18-0.19,0.36-0.36C86.73,52.84,86.61,52.75,86.53,52.63z M86.79,54.46
					c0.15,0.05,0.33,0.08,0.53,0.08c0.27,0,0.49-0.05,0.66-0.14c0.17-0.09,0.25-0.21,0.25-0.35c0-0.11-0.07-0.18-0.21-0.22
					c-0.08-0.02-0.24-0.03-0.48-0.04c-0.06,0-0.12,0-0.19-0.01c-0.07,0-0.13-0.01-0.18-0.01c-0.04,0-0.1-0.01-0.18-0.02
					c-0.08-0.01-0.14-0.02-0.17-0.03c-0.02,0-0.07,0.05-0.15,0.15c-0.08,0.11-0.12,0.2-0.12,0.29
					C86.56,54.32,86.64,54.41,86.79,54.46z M87.56,52.77c0.1-0.08,0.15-0.22,0.15-0.41c0-0.16-0.04-0.33-0.12-0.53
					c-0.08-0.2-0.21-0.29-0.39-0.29c-0.16,0-0.27,0.07-0.33,0.23c-0.03,0.08-0.05,0.18-0.05,0.3c0,0.2,0.05,0.38,0.14,0.54
					c0.09,0.16,0.22,0.24,0.38,0.24C87.43,52.84,87.5,52.82,87.56,52.77z"/>
				<path class="st0" d="M91.89,53.63c0.18-0.02,0.3-0.05,0.36-0.1c0.05-0.05,0.08-0.16,0.08-0.35v-2.25c0-0.18-0.02-0.3-0.08-0.35
					c-0.05-0.05-0.17-0.09-0.36-0.1v-0.09h1.35c0.45,0,0.84,0.08,1.15,0.23c0.57,0.27,0.85,0.75,0.85,1.45
					c0,0.25-0.05,0.49-0.15,0.72c-0.1,0.22-0.25,0.42-0.46,0.57c-0.13,0.1-0.27,0.17-0.4,0.22c-0.26,0.09-0.57,0.14-0.94,0.14h-1.39
					V53.63z M92.9,53.5c0.04,0.03,0.12,0.04,0.25,0.04c0.39,0,0.71-0.08,0.96-0.23c0.38-0.24,0.58-0.65,0.58-1.23
					c0-0.52-0.16-0.91-0.48-1.17c-0.27-0.22-0.63-0.34-1.09-0.34c-0.11,0-0.19,0.02-0.23,0.04c-0.04,0.03-0.06,0.08-0.06,0.16v2.56
					C92.84,53.42,92.86,53.47,92.9,53.5z"/>
				<path class="st0" d="M96.52,53.65c0.17-0.02,0.28-0.05,0.33-0.09c0.04-0.05,0.07-0.16,0.07-0.35v-1.18
					c0-0.11-0.01-0.18-0.02-0.22c-0.02-0.07-0.08-0.1-0.16-0.1c-0.02,0-0.03,0-0.05,0.01c-0.02,0-0.06,0.02-0.15,0.04v-0.08
					l0.1-0.04c0.29-0.09,0.49-0.17,0.59-0.21c0.05-0.02,0.08-0.03,0.09-0.03c0,0.01,0.01,0.02,0.01,0.03v1.77
					c0,0.19,0.02,0.3,0.06,0.35c0.04,0.05,0.15,0.08,0.31,0.09v0.07h-1.19V53.65z M96.91,50.36c0.05-0.05,0.11-0.08,0.18-0.08
					c0.07,0,0.13,0.02,0.18,0.08c0.05,0.05,0.08,0.11,0.08,0.18c0,0.07-0.03,0.13-0.08,0.18c-0.05,0.05-0.11,0.08-0.18,0.08
					c-0.07,0-0.14-0.03-0.18-0.08c-0.05-0.05-0.08-0.11-0.08-0.18C96.83,50.47,96.86,50.41,96.91,50.36z"/>
				<path class="st0" d="M98.9,53.65c0.12-0.01,0.2-0.05,0.24-0.09c0.05-0.04,0.07-0.14,0.07-0.29v-1.25c0-0.11-0.01-0.18-0.03-0.22
					c-0.03-0.06-0.09-0.09-0.19-0.09c-0.01,0-0.03,0-0.04,0c-0.02,0-0.04,0.01-0.06,0.01v-0.09c0.07-0.02,0.22-0.07,0.47-0.15
					l0.23-0.07c0.01,0,0.02,0,0.02,0.01c0,0.01,0,0.02,0,0.03v0.36c0.15-0.14,0.27-0.24,0.35-0.29c0.13-0.08,0.26-0.12,0.39-0.12
					c0.11,0,0.21,0.03,0.3,0.1c0.18,0.13,0.27,0.35,0.27,0.67v1.15c0,0.11,0.02,0.2,0.07,0.25c0.05,0.05,0.13,0.08,0.24,0.08v0.07
					h-1.04v-0.07c0.12-0.02,0.2-0.05,0.25-0.1c0.05-0.05,0.07-0.16,0.07-0.33v-1.05c0-0.14-0.03-0.26-0.08-0.35
					c-0.05-0.09-0.15-0.14-0.29-0.14c-0.09,0-0.19,0.03-0.29,0.1c-0.05,0.04-0.13,0.1-0.22,0.19v1.38c0,0.12,0.03,0.2,0.08,0.24
					c0.05,0.04,0.13,0.06,0.24,0.07v0.07H98.9V53.65z"/>
				<path class="st0" d="M102.34,53.65c0.14-0.02,0.22-0.05,0.27-0.1c0.04-0.05,0.06-0.16,0.06-0.34v-2.36
					c0-0.09-0.01-0.16-0.04-0.2c-0.02-0.04-0.08-0.07-0.17-0.07c-0.02,0-0.03,0-0.05,0.01c-0.02,0-0.04,0-0.06,0.01V50.5
					c0.07-0.02,0.16-0.05,0.27-0.08c0.1-0.03,0.18-0.05,0.21-0.07l0.24-0.07l0,0.02v1.51c0.1-0.12,0.19-0.2,0.27-0.26
					c0.14-0.1,0.3-0.15,0.47-0.15c0.26,0,0.44,0.11,0.54,0.34c0.06,0.12,0.08,0.27,0.08,0.46v1.01c0,0.17,0.02,0.29,0.06,0.34
					c0.04,0.05,0.12,0.08,0.25,0.1v0.07h-1.06v-0.07c0.14-0.02,0.23-0.06,0.28-0.1c0.04-0.05,0.06-0.16,0.06-0.34v-1
					c0-0.16-0.03-0.29-0.08-0.39c-0.05-0.1-0.16-0.15-0.3-0.15c-0.12,0-0.25,0.05-0.37,0.14c-0.12,0.09-0.18,0.15-0.18,0.18v1.22
					c0,0.18,0.02,0.3,0.06,0.34c0.04,0.05,0.13,0.08,0.27,0.1v0.07h-1.08V53.65z"/>
				<path class="st0" d="M108.11,53.63c0.21-0.02,0.34-0.07,0.4-0.14c0.05-0.07,0.08-0.24,0.08-0.51v-2.05
					c0-0.18-0.03-0.3-0.08-0.36c-0.06-0.05-0.19-0.09-0.39-0.1v-0.09h0.99l1.15,2.51l1.12-2.51h0.99v0.09
					c-0.18,0.01-0.3,0.05-0.36,0.1c-0.05,0.05-0.08,0.17-0.08,0.35v2.24c0,0.19,0.03,0.3,0.08,0.35c0.05,0.05,0.17,0.09,0.36,0.1
					v0.09h-1.4v-0.09c0.2-0.01,0.33-0.05,0.38-0.11c0.05-0.05,0.07-0.19,0.07-0.4v-2.26l-1.28,2.87h-0.07l-1.26-2.75v2.01
					c0,0.28,0.04,0.46,0.12,0.54c0.05,0.05,0.16,0.09,0.35,0.11v0.09h-1.17V53.63z"/>
				<path class="st0" d="M113.93,51.75c0.2-0.22,0.47-0.34,0.79-0.34c0.32,0,0.59,0.11,0.8,0.32c0.21,0.21,0.32,0.5,0.32,0.85
					c0,0.33-0.1,0.61-0.3,0.85c-0.21,0.24-0.47,0.36-0.8,0.36c-0.31,0-0.58-0.12-0.79-0.35c-0.22-0.23-0.32-0.52-0.32-0.87
					C113.62,52.25,113.72,51.98,113.93,51.75z M114.32,51.69c-0.17,0.15-0.25,0.41-0.25,0.77c0,0.29,0.07,0.56,0.2,0.82
					c0.13,0.25,0.31,0.38,0.55,0.38c0.18,0,0.32-0.08,0.42-0.25c0.1-0.17,0.15-0.39,0.15-0.67c0-0.28-0.06-0.55-0.19-0.8
					c-0.13-0.25-0.31-0.37-0.55-0.37C114.52,51.56,114.41,51.6,114.32,51.69z"/>
				<path class="st0" d="M117.42,51.75c0.2-0.22,0.47-0.34,0.8-0.34c0.32,0,0.59,0.11,0.8,0.32c0.21,0.21,0.31,0.5,0.31,0.85
					c0,0.33-0.1,0.61-0.31,0.85c-0.2,0.24-0.47,0.36-0.79,0.36c-0.31,0-0.58-0.12-0.79-0.35c-0.22-0.23-0.32-0.52-0.32-0.87
					C117.12,52.25,117.22,51.98,117.42,51.75z M117.81,51.69c-0.16,0.15-0.24,0.41-0.24,0.77c0,0.29,0.07,0.56,0.2,0.82
					c0.13,0.25,0.31,0.38,0.55,0.38c0.18,0,0.32-0.08,0.43-0.25c0.1-0.17,0.14-0.39,0.14-0.67c0-0.28-0.06-0.55-0.19-0.8
					c-0.13-0.25-0.31-0.37-0.55-0.37C118.02,51.56,117.91,51.6,117.81,51.69z"/>
				<path class="st0" d="M120.57,53.65c0.12-0.01,0.2-0.05,0.24-0.09c0.05-0.04,0.07-0.14,0.07-0.29v-1.25
					c0-0.11-0.01-0.18-0.03-0.22c-0.03-0.06-0.09-0.09-0.19-0.09c-0.02,0-0.03,0-0.05,0c-0.01,0-0.03,0.01-0.05,0.01v-0.09
					c0.06-0.02,0.22-0.07,0.47-0.15l0.23-0.07c0.01,0,0.02,0,0.02,0.01c0,0.01,0,0.02,0,0.03v0.36c0.15-0.14,0.27-0.24,0.35-0.29
					c0.13-0.08,0.26-0.12,0.4-0.12c0.11,0,0.21,0.03,0.3,0.1c0.18,0.13,0.26,0.35,0.26,0.67v1.15c0,0.11,0.03,0.2,0.07,0.25
					c0.05,0.05,0.13,0.08,0.24,0.08v0.07h-1.04v-0.07c0.12-0.02,0.2-0.05,0.25-0.1c0.04-0.05,0.07-0.16,0.07-0.33v-1.05
					c0-0.14-0.03-0.26-0.08-0.35c-0.05-0.09-0.15-0.14-0.29-0.14c-0.1,0-0.19,0.03-0.29,0.1c-0.06,0.04-0.13,0.1-0.21,0.19v1.38
					c0,0.12,0.03,0.2,0.08,0.24c0.05,0.04,0.14,0.06,0.25,0.07v0.07h-1.07V53.65z"/>
				<path class="st0" d="M128.63,50.41c0.19,0.05,0.3,0.08,0.32,0.08c0.04,0,0.09-0.01,0.13-0.04c0.04-0.03,0.07-0.07,0.09-0.12h0.1
					l0.05,1.13h-0.12c-0.07-0.22-0.16-0.41-0.26-0.54c-0.2-0.26-0.48-0.39-0.83-0.39c-0.35,0-0.64,0.14-0.86,0.42
					c-0.22,0.28-0.33,0.66-0.33,1.15c0,0.45,0.12,0.81,0.35,1.08c0.23,0.27,0.53,0.4,0.89,0.4c0.26,0,0.5-0.06,0.71-0.19
					c0.13-0.07,0.26-0.18,0.41-0.32l0.09,0.09c-0.11,0.14-0.25,0.27-0.42,0.37c-0.28,0.18-0.58,0.27-0.91,0.27
					c-0.54,0-0.96-0.18-1.28-0.52c-0.29-0.32-0.44-0.72-0.44-1.2c0-0.49,0.15-0.9,0.46-1.23c0.32-0.35,0.74-0.53,1.26-0.53
					C128.26,50.33,128.44,50.35,128.63,50.41z"/>
				<path class="st0" d="M131.1,52.64c0.15-0.1,0.45-0.23,0.89-0.4v-0.21c0-0.17-0.02-0.29-0.05-0.35
					c-0.06-0.11-0.17-0.17-0.34-0.17c-0.08,0-0.16,0.02-0.24,0.07c-0.07,0.04-0.11,0.11-0.11,0.18c0,0.02,0,0.05,0.01,0.1
					c0,0.05,0.01,0.08,0.01,0.09c0,0.09-0.03,0.15-0.09,0.19c-0.04,0.02-0.08,0.03-0.12,0.03c-0.07,0-0.13-0.02-0.17-0.07
					c-0.04-0.05-0.06-0.1-0.06-0.16c0-0.11,0.07-0.23,0.21-0.36c0.14-0.13,0.35-0.19,0.62-0.19c0.32,0,0.53,0.1,0.64,0.31
					c0.06,0.11,0.09,0.28,0.09,0.49v0.99c0,0.09,0.01,0.16,0.02,0.2c0.02,0.06,0.06,0.1,0.13,0.1c0.04,0,0.07-0.01,0.09-0.02
					c0.02-0.01,0.07-0.04,0.13-0.09v0.13c-0.05,0.06-0.11,0.12-0.17,0.16c-0.09,0.06-0.19,0.09-0.28,0.09
					c-0.11,0-0.19-0.03-0.24-0.11c-0.05-0.07-0.07-0.16-0.08-0.26c-0.13,0.11-0.23,0.19-0.32,0.24c-0.15,0.09-0.29,0.13-0.42,0.13
					c-0.14,0-0.26-0.05-0.36-0.15c-0.1-0.1-0.15-0.23-0.15-0.38C130.75,53,130.86,52.79,131.1,52.64z M131.99,52.36
					c-0.19,0.06-0.34,0.13-0.47,0.21c-0.23,0.14-0.35,0.31-0.35,0.5c0,0.15,0.05,0.26,0.15,0.33c0.06,0.05,0.13,0.07,0.21,0.07
					c0.11,0,0.21-0.03,0.31-0.09c0.1-0.06,0.15-0.14,0.15-0.23V52.36z"/>
				<path class="st0" d="M133.79,53.66c0.16-0.01,0.26-0.04,0.31-0.08c0.05-0.04,0.07-0.13,0.07-0.27v-2.47
					c0-0.12-0.02-0.19-0.06-0.22c-0.04-0.03-0.1-0.05-0.17-0.05c-0.03,0-0.06,0-0.08,0c-0.02,0-0.05,0.01-0.07,0.01v-0.07l0.22-0.06
					c0.17-0.05,0.31-0.09,0.43-0.12c0.07-0.03,0.11-0.04,0.13-0.04c0.01,0,0.01,0,0.01,0.01c0.01,0,0.01,0.01,0.01,0.03v2.07
					l0.67-0.6c0.05-0.04,0.08-0.08,0.1-0.1c0.01-0.03,0.02-0.05,0.02-0.07c0-0.04-0.02-0.06-0.05-0.07
					c-0.04-0.01-0.1-0.02-0.19-0.02v-0.07h1.02v0.07c-0.18,0.01-0.33,0.05-0.44,0.11c-0.11,0.07-0.32,0.24-0.64,0.53l-0.14,0.13
					l0.45,0.6c0.23,0.3,0.41,0.5,0.52,0.6c0.12,0.1,0.24,0.15,0.38,0.16v0.07h-1.09v-0.07l0.09,0c0.03,0,0.05-0.01,0.07-0.02
					c0.02-0.01,0.03-0.03,0.03-0.05c0-0.02,0-0.03-0.01-0.05c-0.01-0.02-0.02-0.03-0.03-0.05l-0.75-1.01v0.92
					c0,0.11,0.04,0.19,0.12,0.23c0.05,0.02,0.14,0.04,0.25,0.04v0.07h-1.17V53.66z"/>
				<path class="st0" d="M139.02,51.65c0.17,0.16,0.26,0.39,0.26,0.68h-1.55c0.02,0.38,0.1,0.66,0.26,0.83
					c0.15,0.18,0.34,0.26,0.55,0.26c0.17,0,0.31-0.04,0.43-0.14c0.11-0.09,0.22-0.22,0.32-0.38l0.09,0.03
					c-0.07,0.21-0.19,0.4-0.38,0.58c-0.18,0.18-0.41,0.26-0.67,0.26c-0.3,0-0.54-0.12-0.71-0.35c-0.17-0.23-0.25-0.5-0.25-0.81
					c0-0.33,0.1-0.62,0.29-0.86c0.19-0.24,0.45-0.36,0.76-0.36C138.65,51.41,138.85,51.49,139.02,51.65z M137.85,51.84
					c-0.05,0.09-0.09,0.2-0.11,0.34h1.03c-0.02-0.16-0.05-0.29-0.09-0.36c-0.08-0.15-0.21-0.22-0.4-0.22
					C138.09,51.59,137.95,51.68,137.85,51.84z"/>
			</g>
		</g>
	</g>
</g>
</svg>
